<svg width="270" height="172" viewBox="0 0 270 172" fill="none" xmlns="http://www.w3.org/2000/svg">
<path d="M63.0135 69.437C72.4563 69.437 80.1111 61.763 80.1111 52.2967C80.1111 42.8303 72.4563 35.1562 63.0135 35.1562C53.5708 35.1562 45.916 42.8303 45.916 52.2967C45.916 61.763 53.5708 69.437 63.0135 69.437Z" fill="#141414"/>
<path d="M90.9392 73.2227C90.6354 70.043 89.4526 67.1281 87.638 64.7188L63.0145 74.3117L38.3911 64.7188C36.5765 67.1281 35.3936 70.044 35.0898 73.2227L50.4495 79.2062L39.9927 83.2798C41.3976 86.0622 43.0861 88.6778 45.0268 91.1094L63.0145 84.1018L81.0022 91.1094C82.943 88.6788 84.6314 86.0622 86.0363 83.2798L75.5796 79.2062L90.9392 73.2227Z" fill="#141414"/>
<path d="M135.021 48.3088C135.021 45.8893 136.953 43.9531 139.37 43.9531C141.786 43.9531 143.717 45.8883 143.717 48.3088C143.717 50.7292 141.786 52.6644 139.37 52.6644C136.953 52.6644 135.021 50.7292 135.021 48.3088ZM135.505 56.2445C138.355 55.6157 141.157 55.5672 143.331 56.2931C143.524 56.4862 143.137 79.6667 142.944 80.0055C141.205 80.2471 137.872 80.3442 135.746 80.054C135.65 79.9084 135.216 56.7774 135.505 56.2456V56.2445Z" fill="#141414"/>
<path d="M146.895 56.4057C149.647 55.7768 152.4 55.7283 154.478 56.4542C154.527 57.3733 154.478 59.2609 154.429 59.5025C156.265 56.3572 159.646 55.4381 163.028 56.2115C162.979 58.7281 162.497 61.8249 161.917 64.2929C161.095 64.0513 159.84 63.8086 158.68 63.8086C156.216 63.8086 155.154 65.4051 154.864 67.5344C154.72 68.599 155.105 79.8258 154.961 79.9715C153.029 80.2616 149.261 80.3586 146.846 80.02C146.7 79.8258 146.7 57.3722 146.895 56.4047V56.4057Z" fill="#141414"/>
<path d="M164.226 67.9929C164.226 60.5404 169.877 55.75 175.433 55.75C179.732 55.75 181.858 58.0724 182.534 58.9924C182.534 58.7022 182.534 56.67 182.631 56.4274C185.239 55.8471 187.847 55.7985 189.876 56.4759C190.021 56.5244 189.682 79.3653 189.537 79.8981C187.799 80.1398 184.465 80.2368 182.34 79.9466C182.292 79.6079 182.292 77.5757 182.243 77.237C181.421 78.5918 178.668 80.2368 175.432 80.2368C169.877 80.2368 164.225 75.4464 164.225 67.9939L164.226 67.9929ZM182.05 67.9929C182.05 65.1376 179.925 62.8638 177.123 62.8638C174.322 62.8638 172.196 65.1387 172.196 67.9929C172.196 70.8471 174.322 73.122 177.123 73.122C179.925 73.122 182.05 70.8471 182.05 67.9929Z" fill="#141414"/>
<path d="M195.799 72.4873C195.848 70.2124 196.137 61.8893 196.137 61.8408C196.137 61.7923 193.046 61.8408 192.805 61.5992C192.611 60.1473 192.515 57.3891 192.756 55.6471H196.379C196.428 55.4054 196.428 50.7111 196.621 50.1307C198.311 49.599 202.465 49.0661 204.011 49.2592C204.157 49.5494 203.866 55.7441 203.915 55.7927C204.978 55.7441 209.374 55.7927 209.808 55.9858C210.001 57.4377 210.097 60.1958 209.856 61.9379C209.518 62.2766 204.156 62.035 203.721 62.0835C203.721 62.3251 203.576 67.6969 203.576 70.5036C203.576 72.0526 204.349 73.0201 205.894 73.0686C207.392 73.1172 208.696 72.1971 209.083 72.1011C209.808 73.4559 210.821 76.118 211.208 77.8601C211.208 77.8601 209.18 80.2796 204.059 80.231C198.504 80.231 195.798 77.1826 195.798 72.4883L195.799 72.4873Z" fill="#141414"/>
<path d="M220.091 70.2249C220.333 72.4027 222.072 73.6605 225.405 73.6605C227.772 73.6605 229.946 72.9345 231.203 72.2085C231.927 73.5634 232.941 76.2255 233.328 77.9676C232.023 79.0322 228.932 80.2425 225.02 80.2425C215.939 80.2425 212.219 74.3874 212.219 67.9024C212.219 61.4175 216.517 55.5625 224.343 55.5625C231.203 55.5625 235.019 60.644 235.019 66.0633C235.019 67.5637 234.921 69.0157 234.68 69.9832C232.217 70.3219 223.28 70.3219 220.093 70.2249H220.091ZM220.189 65.1918L227.676 65.0947C227.676 62.7238 226.662 61.3204 224.247 61.3204C221.831 61.3204 220.479 62.9169 220.189 65.1918Z" fill="#141414"/>
<path d="M143.864 89.4848C144.009 90.695 143.816 103.188 143.622 104.398C144.686 102.945 146.619 101.493 150.001 101.493C156.575 101.493 159.814 105.657 159.814 111.903C159.814 115.147 159.427 124.734 159.138 125.654C157.349 125.896 153.869 125.993 151.646 125.703C151.549 125.17 151.694 114.47 151.694 112.727C151.694 110.694 150.583 108.321 148.069 108.321C145.411 108.321 144.009 110.403 144.009 112.291C144.009 113.889 143.96 125.51 143.767 125.703C141.979 125.944 138.498 126.042 136.275 125.751C136.13 125.462 135.985 92.0519 136.227 89.4373C139.03 88.8074 141.736 88.7599 143.864 89.4858V89.4848Z" fill="#141414"/>
<path d="M175.387 101.526C178.046 100.945 180.656 100.896 182.685 101.575L182.637 104.189C182.975 103.608 185.296 101.429 189.259 101.429C195.203 101.429 200.423 106.223 200.423 113.679C200.423 121.136 195.251 125.881 189.259 125.929C186.069 125.977 183.41 124.38 183.072 123.751C183.072 125.348 183.072 135.565 182.831 136.001C180.897 136.29 177.176 136.387 174.807 136.049C174.662 136.001 174.953 102.592 175.387 101.526ZM192.449 113.679C192.449 110.822 190.225 108.547 187.422 108.547C184.618 108.547 182.396 110.823 182.396 113.679C182.396 116.536 184.62 118.811 187.422 118.811C190.224 118.811 192.449 116.536 192.449 113.679Z" fill="#141414"/>
<path d="M163.094 93.9963C163.094 91.5768 165.025 89.6406 167.441 89.6406C169.858 89.6406 171.789 91.5757 171.789 93.9963C171.789 96.4167 169.858 98.3519 167.441 98.3519C165.025 98.3519 163.094 96.4167 163.094 93.9963ZM163.577 101.932C166.427 101.303 169.229 101.255 171.403 101.981C171.595 102.174 171.208 125.355 171.016 125.693C169.277 125.934 165.943 126.032 163.818 125.741C163.721 125.596 163.287 102.465 163.577 101.933V101.932Z" fill="#141414"/>
<path d="M118.726 125.923C128.715 125.923 132.816 120.557 132.816 115.433C132.816 108.762 127.991 106.2 121.235 104.751C116.169 103.687 115.397 103.01 115.397 101.512C115.397 99.9167 116.844 98.7569 120.077 98.7569C124.71 98.7569 128.233 100.594 129.004 100.884C129.874 99.3858 131.079 96.1464 131.611 93.9716C129.776 92.7149 125.53 91.3125 119.933 91.3125C111.392 91.3125 106.761 96.0978 106.761 101.609C106.761 107.941 110.283 111.132 116.942 112.438C122.201 113.453 123.553 114.661 123.553 116.159C123.553 118.238 121.767 118.819 118.535 118.819C114.433 118.819 110.331 116.207 109.174 115.532C108.305 117.03 107.05 120.317 106.52 122.493C108.256 123.798 112.986 125.925 118.727 125.925" fill="#141414"/>
<path d="M119.392 46.001C114.856 46.001 109.404 46.2426 106.798 46.4843C106.364 49.8683 106.46 77.8089 106.701 80.0323C109.355 80.3709 113.504 80.2253 115.676 79.9351C115.966 79.1617 115.917 74.5695 115.917 70.2189C117.703 70.2674 117.654 70.2674 119.391 70.2674C126.919 70.2674 132.275 65.5781 132.275 58.1337C132.275 50.6892 126.919 46 119.391 46L119.392 46.001ZM118.861 62.7754C117.8 62.7754 116.593 62.7269 115.724 62.6309V54.1228C116.882 53.9782 117.51 53.9297 119.006 53.9297C121.419 53.9297 123.396 55.5737 123.396 58.3288C123.396 61.084 121.419 62.7765 118.861 62.7765V62.7754Z" fill="#141414"/>
<rect x="35.0664" y="35.1562" width="199.864" height="101.696" stroke="#00A9FF"/>
<rect x="1" y="1" width="268" height="170" stroke="#00A9FF"/>
</svg>
