<svg width="680" height="342" viewBox="0 0 680 342" fill="none" xmlns="http://www.w3.org/2000/svg">
<path d="M95.0278 115.878C127.16 115.878 153.209 89.9377 153.209 57.9389C153.209 25.9401 127.16 0 95.0278 0C62.8954 0 36.8469 25.9401 36.8469 57.9389C36.8469 89.9377 62.8954 115.878 95.0278 115.878Z" fill="white"/>
<path d="M190.052 128.752C189.018 117.996 184.993 108.136 178.818 99.9863L95.0277 132.436L11.2337 99.9863C5.05876 108.136 1.03373 117.996 0 128.752L52.267 148.992L16.6874 162.775C21.468 172.187 27.2136 181.034 33.8178 189.26L95.0277 165.555L156.238 189.26C162.842 181.038 168.587 172.187 173.368 162.775L137.785 148.996L190.052 128.752Z" fill="white"/>
<path d="M340.066 44.5055C340.066 36.3214 346.64 29.772 354.862 29.772C363.08 29.772 369.657 36.3179 369.657 44.5055C369.657 52.6931 363.083 59.239 354.862 59.239C346.643 59.2356 340.066 52.6897 340.066 44.5055ZM341.711 71.3494C351.41 69.2221 360.944 69.058 368.341 71.5136C368.997 72.1668 367.682 150.578 367.026 151.724C361.109 152.541 349.765 152.869 342.532 151.888C342.203 151.395 340.726 73.1518 341.711 71.3494Z" fill="white"/>
<path d="M380.489 71.8806C389.857 69.7534 399.226 69.5892 406.294 72.0448C406.459 75.1536 406.294 81.5388 406.129 82.3562C412.376 71.7165 423.881 68.6076 435.39 71.224C435.225 79.7365 433.58 90.212 431.608 98.5604C428.813 97.743 424.541 96.9222 420.595 96.9222C412.211 96.9222 408.595 102.322 407.609 109.525C407.118 113.126 408.43 151.102 407.939 151.595C401.366 152.576 388.542 152.905 380.324 151.759C379.829 151.109 379.829 75.1536 380.489 71.8806Z" fill="white"/>
<path d="M439.47 111.074C439.47 85.8648 458.702 69.6606 477.604 69.6606C492.235 69.6606 499.467 77.5165 501.768 80.6287C501.768 79.6472 501.768 72.7729 502.098 71.9521C510.976 69.989 519.85 69.8248 526.753 72.1162C527.248 72.2804 526.094 149.543 525.603 151.345C519.685 152.162 508.342 152.491 501.109 151.509C500.944 150.363 500.944 143.489 500.779 142.343C497.984 146.926 488.615 152.491 477.601 152.491C458.702 152.491 439.47 136.283 439.47 111.074ZM500.123 111.074C500.123 101.416 492.891 93.724 483.357 93.724C473.823 93.724 466.591 101.419 466.591 111.074C466.591 120.729 473.823 128.424 483.357 128.424C492.891 128.427 500.123 120.732 500.123 111.074Z" fill="white"/>
<path d="M546.885 126.301C547.05 118.606 548.036 90.4517 548.036 90.2876C548.036 90.1234 537.517 90.2876 536.696 89.4702C536.036 84.559 535.71 75.2291 536.531 69.3364H548.86C549.025 68.519 549.025 52.6398 549.681 50.6767C555.433 48.8777 569.569 47.0754 574.831 47.7286C575.325 48.7101 574.336 69.6647 574.501 69.8289C578.117 69.6647 593.077 69.8289 594.554 70.4821C595.213 75.3933 595.539 84.7232 594.719 90.6159C593.568 91.7616 575.322 90.9442 573.841 91.1084C573.841 91.9258 573.347 110.096 573.347 119.59C573.347 124.83 575.978 128.103 581.239 128.267C586.335 128.431 590.773 125.319 592.088 124.994C594.554 129.577 598.005 138.582 599.321 144.475C599.321 144.475 592.418 152.659 574.992 152.495C556.089 152.491 546.885 142.18 546.885 126.301Z" fill="white"/>
<path d="M629.206 118.607C630.027 125.974 635.945 130.228 647.288 130.228C655.342 130.228 662.739 127.773 667.015 125.317C669.481 129.9 672.932 138.905 674.248 144.798C669.81 148.399 659.291 152.493 645.976 152.493C615.074 152.493 602.415 132.687 602.415 110.751C602.415 89.636 617.045 69.0098 643.672 69.0098C667.015 69.0098 680 86.1989 680 104.53C680 109.606 679.67 114.517 678.85 117.79C670.463 118.936 640.055 118.936 629.206 118.607ZM629.533 101.582L655.012 101.254C655.012 93.2339 651.56 88.4869 643.342 88.4869C635.453 88.4869 630.522 93.8906 629.533 101.582Z" fill="white"/>
<path d="M368.204 183.757C368.699 187.851 368.039 230.109 367.383 234.203C371.003 229.288 377.58 224.377 389.092 224.377C411.459 224.377 422.48 238.461 422.48 259.59C422.48 270.565 421.165 302.994 420.179 306.106C414.094 306.923 402.252 307.252 394.686 306.27C394.357 304.468 394.851 268.273 394.851 262.377C394.851 255.5 391.066 247.473 382.515 247.473C373.469 247.473 368.699 254.515 368.699 260.903C368.699 266.307 368.534 305.617 367.874 306.27C361.789 307.087 349.947 307.416 342.382 306.434C341.887 305.453 341.396 192.441 342.217 183.597C351.757 181.463 360.968 181.298 368.204 183.757Z" fill="white"/>
<path d="M475.495 224.496C484.541 222.53 493.422 222.366 500.329 224.661L500.164 233.505C501.314 231.538 509.21 224.168 522.696 224.168C542.924 224.168 560.687 240.382 560.687 265.605C560.687 290.828 543.089 306.878 522.696 307.043C511.84 307.207 502.794 301.803 501.644 299.672C501.644 305.076 501.644 339.635 500.823 341.11C494.243 342.091 481.581 342.419 473.52 341.274C473.026 341.113 474.015 228.101 475.495 224.496ZM533.552 265.609C533.552 255.944 525.986 248.249 516.446 248.249C506.905 248.249 499.343 255.947 499.343 265.609C499.343 275.27 506.909 282.969 516.446 282.969C525.986 282.969 533.552 275.27 533.552 265.609Z" fill="white"/>
<path d="M433.655 199.051C433.655 190.867 440.228 184.318 448.45 184.318C456.668 184.318 463.245 190.864 463.245 199.051C463.245 207.236 456.671 213.785 448.45 213.785C440.231 213.782 433.655 207.236 433.655 199.051ZM435.3 225.895C444.998 223.768 454.532 223.604 461.929 226.059C462.585 226.713 461.27 305.124 460.614 306.27C454.697 307.087 443.353 307.415 436.12 306.434C435.791 305.941 434.314 227.698 435.3 225.895Z" fill="white"/>
<path d="M282.669 307.037C316.659 307.037 330.616 288.887 330.616 271.554C330.616 248.988 314.196 240.322 291.207 235.418C273.967 231.82 271.339 229.532 271.339 224.463C271.339 219.066 276.264 215.144 287.268 215.144C303.031 215.144 315.017 221.358 317.644 222.339C320.601 217.271 324.705 206.313 326.512 198.957C320.272 194.706 305.823 189.962 286.777 189.962C257.712 189.962 241.952 206.149 241.952 224.792C241.952 246.211 253.938 257.005 276.597 261.42C294.494 264.854 299.092 268.941 299.092 274.009C299.092 281.041 293.017 283.004 282.017 283.004C268.06 283.004 254.103 274.174 250.163 271.886C247.206 276.954 242.938 288.073 241.131 295.433C247.038 299.841 263.131 307.037 282.669 307.037Z" fill="white"/>
<path d="M286.904 36.6631C271.47 36.6631 252.914 37.4805 244.047 38.2979C242.57 49.7447 242.896 144.258 243.717 151.778C252.75 152.924 266.868 152.431 274.259 151.45C275.244 148.834 275.079 133.3 275.079 118.583C281.155 118.747 280.99 118.747 286.9 118.747C312.517 118.747 330.743 102.885 330.743 77.7036C330.743 52.5218 312.52 36.6631 286.904 36.6631ZM285.097 93.405C281.484 93.405 277.38 93.2408 274.424 92.9159V64.1363C278.363 63.6472 280.499 63.483 285.589 63.483C293.8 63.483 300.531 69.044 300.531 78.3636C300.531 87.6798 293.8 93.405 285.097 93.405Z" fill="white"/>
</svg>
