<svg width="1140" height="1140" viewBox="0 0 1140 1140" fill="none" xmlns="http://www.w3.org/2000/svg">
<path d="M569.157 628.035C656.792 628.035 727.834 556.973 727.834 469.314C727.834 381.655 656.792 310.594 569.157 310.594C481.523 310.594 410.481 381.655 410.481 469.314C410.481 556.973 481.523 628.035 569.157 628.035Z" fill="#141414"/>
<path d="M828.419 663.364C825.614 633.905 814.595 606.85 797.766 584.538L569.234 673.451L340.636 584.538C323.807 606.85 312.787 633.905 309.982 663.364L452.564 718.809L355.528 756.552C368.551 782.338 384.245 806.587 402.277 829.099L569.234 764.168L736.192 829.099C754.223 806.587 769.85 782.338 782.94 756.552L685.904 718.809L828.486 663.364H828.419Z" fill="#141414"/>
<path d="M830.031 570.002C830.031 714.18 713.153 831.059 568.976 831.059C424.799 831.059 307.92 714.18 307.92 570.002C307.92 425.824 424.799 308.945 568.976 308.945C713.153 308.945 830.031 425.824 830.031 570.002Z" stroke="#00A9FF" stroke-width="2"/>
<path d="M618.967 676.049C618.967 761.659 549.567 831.06 463.957 831.06C378.348 831.06 308.947 761.659 308.947 676.049C308.947 590.44 378.348 521.039 463.957 521.039C549.567 521.039 618.967 590.44 618.967 676.049Z" stroke="#00A9FF" stroke-width="2"/>
<path d="M829.014 676.049C829.014 761.659 759.614 831.06 674.004 831.06C588.394 831.06 518.994 761.659 518.994 676.049C518.994 590.44 588.394 521.039 674.004 521.039C759.614 521.039 829.014 590.44 829.014 676.049Z" stroke="#00A9FF" stroke-width="2"/>
<path d="M669.936 730.085C669.936 785.848 624.732 831.052 568.969 831.052C513.207 831.052 468.002 785.848 468.002 730.085C468.002 674.322 513.207 629.117 568.969 629.117C624.732 629.117 669.936 674.322 669.936 730.085Z" stroke="#00A9FF" stroke-width="2"/>
<path d="M986.041 416.028C986.041 645.241 800.227 831.056 571.015 831.056C341.802 831.056 155.988 645.241 155.988 416.028C155.988 186.814 341.802 1 571.015 1C800.227 1 986.041 186.814 986.041 416.028Z" stroke="#00A9FF" stroke-width="2"/>
<path d="M983.998 723.973C983.998 953.187 798.184 1139 568.972 1139C339.759 1139 153.945 953.187 153.945 723.973C153.945 494.76 339.759 308.945 568.972 308.945C798.184 308.945 983.998 494.76 983.998 723.973Z" stroke="#00A9FF" stroke-width="2"/>
<path d="M831.053 570.004C831.053 799.218 645.239 985.032 416.026 985.032C186.814 985.032 1 799.218 1 570.004C1 340.791 186.814 154.977 416.026 154.977C645.239 154.977 831.053 340.791 831.053 570.004Z" stroke="#00A9FF" stroke-width="2"/>
<path d="M1139 570.004C1139 799.218 953.186 985.032 723.974 985.032C494.761 985.032 308.947 799.218 308.947 570.004C308.947 340.791 494.761 154.977 723.974 154.977C953.186 154.977 1139 340.791 1139 570.004Z" stroke="#00A9FF" stroke-width="2"/>
</svg>
