<svg width="206" height="209" viewBox="0 0 206 209" fill="none" xmlns="http://www.w3.org/2000/svg">
<rect x="1" y="1" width="204" height="207" fill="#00A9FF" fill-opacity="0.2"/>
<rect x="56.9766" y="57.9219" width="92.0214" height="92.3038" fill="white"/>
<path d="M102.893 114.05C118.408 114.05 130.986 101.485 130.986 85.9861C130.986 70.4866 118.408 57.9219 102.893 57.9219C87.3782 57.9219 74.8008 70.4866 74.8008 85.9861C74.8008 101.485 87.3782 114.05 102.893 114.05Z" fill="#141414"/>
<path d="M148.776 120.244C148.277 115.038 146.333 110.265 143.352 106.32L102.894 122.027L62.4358 106.32C59.4543 110.265 57.5109 115.039 57.0117 120.244L82.2486 130.041L65.0675 136.711C67.3758 141.266 70.15 145.549 73.3388 149.53L102.894 138.056L132.449 149.53C135.638 145.55 138.412 141.266 140.72 136.711L123.539 130.041L148.776 120.244Z" fill="#141414"/>
<rect x="56.9766" y="57.9219" width="92.0214" height="92.3038" stroke="#00A9FF"/>
<path d="M102.894 57.9172C118.351 57.9172 130.882 45.3997 130.882 29.9586C130.882 14.5175 118.351 2 102.894 2C87.4368 2 74.9062 14.5175 74.9062 29.9586C74.9062 45.3997 87.4368 57.9172 102.894 57.9172Z" fill="#00A9FF" fill-opacity="0.2" stroke="#00A9FF" stroke-opacity="0.2" stroke-dasharray="1 1"/>
<path d="M102.894 205.995C118.351 205.995 130.882 193.478 130.882 178.037C130.882 162.596 118.351 150.078 102.894 150.078C87.4368 150.078 74.9062 162.596 74.9062 178.037C74.9062 193.478 87.4368 205.995 102.894 205.995Z" fill="#00A9FF" fill-opacity="0.2" stroke="#00A9FF" stroke-opacity="0.2" stroke-dasharray="1 1"/>
<path d="M28.9877 113.839C44.445 113.839 56.9756 101.322 56.9756 85.8805C56.9756 70.4394 44.445 57.9219 28.9877 57.9219C13.5306 57.9219 1 70.4394 1 85.8805C1 101.322 13.5306 113.839 28.9877 113.839Z" fill="#00A9FF" fill-opacity="0.2" stroke="#00A9FF" stroke-opacity="0.2" stroke-dasharray="1 1"/>
<path d="M176.984 113.839C192.441 113.839 204.972 101.322 204.972 85.8805C204.972 70.4394 192.441 57.9219 176.984 57.9219C161.527 57.9219 148.996 70.4394 148.996 85.8805C148.996 101.322 161.527 113.839 176.984 113.839Z" fill="#00A9FF" fill-opacity="0.2" stroke="#00A9FF" stroke-opacity="0.2" stroke-dasharray="1 1"/>
<rect x="1" y="57.9219" width="204" height="55.9172" rx="27.9586" stroke="#00A9FF" stroke-opacity="0.2" stroke-dasharray="1 1"/>
<rect x="74.8008" y="2" width="56.1871" height="204" rx="28.0935" stroke="#00A9FF" stroke-opacity="0.2" stroke-dasharray="1 1"/>
<rect x="1" y="1" width="204" height="207" stroke="#00A9FF"/>
</svg>
