<svg width="311" height="62" viewBox="0 0 311 62" fill="none" xmlns="http://www.w3.org/2000/svg">
<circle cx="310" cy="1" r="1" fill="#141414" fill-opacity="0.6"/>
<circle cx="310" cy="7" r="1" fill="#141414" fill-opacity="0.6"/>
<circle cx="310" cy="13" r="1" fill="#141414" fill-opacity="0.6"/>
<circle cx="310" cy="19" r="1" fill="#141414" fill-opacity="0.6"/>
<circle cx="310" cy="25" r="1" fill="#141414" fill-opacity="0.6"/>
<circle cx="310" cy="31" r="1" fill="#141414" fill-opacity="0.6"/>
<circle cx="310" cy="37" r="1" fill="#141414" fill-opacity="0.6"/>
<circle cx="310" cy="43" r="1" fill="#141414" fill-opacity="0.6"/>
<circle cx="310" cy="49" r="1" fill="#141414" fill-opacity="0.6"/>
<circle cx="310" cy="55" r="1" fill="#141414" fill-opacity="0.6"/>
<circle cx="310" cy="61" r="1" fill="#141414" fill-opacity="0.6"/>
<circle cx="1" cy="1" r="1" fill="#141414" fill-opacity="0.6"/>
<circle cx="1" cy="7" r="1" fill="#141414" fill-opacity="0.6"/>
<circle cx="1" cy="13" r="1" fill="#141414" fill-opacity="0.6"/>
<circle cx="1" cy="19" r="1" fill="#141414" fill-opacity="0.6"/>
<circle cx="1" cy="25" r="1" fill="#141414" fill-opacity="0.6"/>
<circle cx="1" cy="31" r="1" fill="#141414" fill-opacity="0.6"/>
<circle cx="1" cy="37" r="1" fill="#141414" fill-opacity="0.6"/>
<circle cx="1" cy="43" r="1" fill="#141414" fill-opacity="0.6"/>
<circle cx="1" cy="49" r="1" fill="#141414" fill-opacity="0.6"/>
<circle cx="1" cy="55" r="1" fill="#141414" fill-opacity="0.6"/>
<circle cx="1" cy="61" r="1" fill="#141414" fill-opacity="0.6"/>
</svg>
