<svg width="243" height="255" viewBox="0 0 243 255" fill="none" xmlns="http://www.w3.org/2000/svg">
<path d="M121.418 94.8628C134.907 94.8628 145.841 83.7006 145.841 69.9315C145.841 56.1622 134.907 45 121.418 45C107.93 45 96.9961 56.1622 96.9961 69.9315C96.9961 83.7006 107.93 94.8628 121.418 94.8628Z" fill="#141414"/>
<path d="M161.308 100.369C160.874 95.7443 159.184 91.5045 156.592 88L121.419 101.953L86.2468 88C83.6548 91.5045 81.9652 95.7457 81.5312 100.369L103.471 109.073L88.5346 114.998C90.5414 119.045 92.9532 122.849 95.7254 126.386L121.419 116.193L147.113 126.386C149.886 122.851 152.297 119.045 154.304 114.998L139.368 109.073L161.308 100.369Z" fill="#141414"/>
<rect x="79.5" y="44" width="84" height="84" stroke="#00A9FF"/>
<rect x="36.5" y="1" width="170" height="170" stroke="#00A9FF"/>
<path d="M78 191H165M78 195V187M165 195V187" stroke="#141414" stroke-opacity="0.8" stroke-width="3" stroke-linecap="round"/>
<path d="M10.6446 244.814C9.153 244.746 6.5088 244.237 4.7121 243.627L12.543 225.965L2.3052 226.067C2.0001 225.355 1.8645 221.185 2.0679 220.846C4.4409 220.575 18.0009 220.643 18.1026 220.677C18.1704 220.711 18.4416 223.287 18.645 225.219C16.2381 231.287 11.7294 242.441 10.6446 244.814ZM24.4107 237.762C26.4108 237.762 28.038 239.288 28.038 241.39C28.038 244.034 25.6989 248.61 24.309 251.017C23.5293 250.814 22.0716 250.238 21.258 249.729C21.1902 249.594 23.0208 246.102 23.6988 244.678C22.1733 244.475 20.7834 243.186 20.7834 241.254C20.7834 239.356 22.4106 237.762 24.4107 237.762ZM23.9361 244.068H23.97H23.9361ZM38.0485 244.814C34.2178 244.814 31.1668 243.186 30.3532 242.169C30.7261 241.152 32.2516 238.779 33.0313 237.83C33.3364 237.796 35.167 239.661 37.9807 239.661C40.0825 239.661 41.3707 238.474 41.3707 236.678C41.3707 234.881 40.0825 233.694 38.1502 233.694C36.7603 233.694 35.6416 234.338 35.0314 234.644L32.116 232.949C32.116 230.406 32.5906 222.507 33.133 220.711C33.472 220.575 45.0997 220.236 46.3201 220.541C46.4896 221.694 46.4218 223.965 46.1845 225.389C46.0489 225.423 41.1334 225.524 37.4044 225.626L37.1671 229.762C37.8451 229.457 38.9977 229.152 40.252 229.152C44.0827 229.152 47.4049 231.762 47.4049 236.61C47.4049 241.661 43.5064 244.814 38.0485 244.814ZM57.1814 227.864C59.1476 227.423 61.046 227.389 62.5376 227.897C62.5037 228.609 62.4698 229.592 62.4359 229.83C63.1817 228.711 64.4699 227.491 67.2497 227.491C69.1481 227.491 70.6736 228.44 71.555 229.965C72.7415 227.931 75.3179 227.491 76.6739 227.491C80.9453 227.491 82.8437 230.338 82.8437 234.677C82.8437 237.017 82.7081 242.949 82.6064 244.509C81.3521 244.678 78.8774 244.746 77.318 244.542C77.2163 244.339 77.3858 236.847 77.3858 235.22C77.3858 233.559 76.9451 232.304 75.1484 232.304C73.2839 232.304 72.7415 234.135 72.7415 235.186C72.7415 237.627 72.6737 242.678 72.5381 244.373C71.3177 244.542 68.8769 244.61 67.3175 244.407C67.1819 244.339 67.3514 236.372 67.3514 235.22C67.3514 233.559 66.8768 232.304 65.114 232.304C63.3512 232.304 62.6393 233.796 62.6393 234.881C62.6393 235.83 62.5715 244.305 62.4359 244.475C61.2155 244.644 58.8086 244.712 57.2831 244.509C57.2153 244.373 57.0797 235.084 57.1814 227.864ZM86.2149 227.864C88.1811 227.423 90.0795 227.389 91.5711 227.897C91.5372 228.609 91.5033 229.592 91.4694 229.83C92.2152 228.711 93.5034 227.491 96.2832 227.491C98.1816 227.491 99.7071 228.44 100.588 229.965C101.775 227.931 104.351 227.491 105.707 227.491C109.979 227.491 111.877 230.338 111.877 234.677C111.877 237.017 111.742 242.949 111.64 244.509C110.386 244.678 107.911 244.746 106.351 244.542C106.25 244.339 106.419 236.847 106.419 235.22C106.419 233.559 105.979 232.304 104.182 232.304C102.317 232.304 101.775 234.135 101.775 235.186C101.775 237.627 101.707 242.678 101.572 244.373C100.351 244.542 97.9104 244.61 96.351 244.407C96.2154 244.339 96.3849 236.372 96.3849 235.22C96.3849 233.559 95.9103 232.304 94.1475 232.304C92.3847 232.304 91.6728 233.796 91.6728 234.881C91.6728 235.83 91.605 244.305 91.4694 244.475C90.249 244.644 87.8421 244.712 86.3166 244.509C86.2488 244.373 86.1132 235.084 86.2149 227.864ZM129.938 244.712C124.819 244.712 120.92 241.39 120.92 236C120.92 231.593 124.276 227.423 129.87 227.423C134.989 227.423 138.955 230.711 138.955 236.101C138.955 240.678 135.701 244.61 129.938 244.712ZM129.938 239.661C131.904 239.661 133.362 238.067 133.362 236.067C133.362 234.067 131.904 232.474 129.938 232.474C127.971 232.474 126.514 234.067 126.514 236.067C126.514 238.067 127.971 239.661 129.938 239.661ZM141.602 244.441C141.5 244.305 141.5 228.575 141.636 227.897C143.568 227.457 145.5 227.423 146.958 227.931C146.992 228.575 146.958 229.898 146.924 230.067C148.212 227.864 150.585 227.219 152.958 227.762C152.925 229.525 152.586 231.694 152.179 233.423C151.602 233.254 150.721 233.084 149.907 233.084C148.179 233.084 147.433 234.203 147.229 235.694C147.128 236.44 147.399 244.305 147.297 244.407C145.941 244.61 143.297 244.678 141.602 244.441ZM168.153 244.814C164.322 244.814 161.271 243.186 160.458 242.169C160.831 241.152 162.356 238.779 163.136 237.83C163.441 237.796 165.272 239.661 168.085 239.661C170.187 239.661 171.475 238.474 171.475 236.678C171.475 234.881 170.187 233.694 168.255 233.694C166.865 233.694 165.746 234.338 165.136 234.644L162.221 232.949C162.221 230.406 162.695 222.507 163.238 220.711C163.577 220.575 175.204 220.236 176.425 220.541C176.594 221.694 176.526 223.965 176.289 225.389C176.153 225.423 171.238 225.524 167.509 225.626L167.272 229.762C167.95 229.457 169.102 229.152 170.357 229.152C174.187 229.152 177.509 231.762 177.509 236.61C177.509 241.661 173.611 244.814 168.153 244.814ZM188.733 244.949C183.139 244.949 179.716 240.983 179.716 232.643C179.716 224.304 183.139 220.372 188.733 220.372C194.326 220.372 197.75 224.304 197.75 232.643C197.75 240.983 194.326 244.949 188.733 244.949ZM188.733 239.83C191.106 239.83 192.055 237.084 192.055 232.643C192.055 228.203 191.106 225.728 188.733 225.728C186.292 225.728 185.411 228.203 185.411 232.643C185.411 237.084 186.292 239.83 188.733 239.83ZM206.883 251.729C206.781 251.695 206.984 228.304 207.29 227.558C209.154 227.152 210.985 227.118 212.408 227.592L212.375 229.423C212.612 229.016 214.239 227.491 217.019 227.491C221.189 227.491 224.85 230.847 224.85 236.067C224.85 241.288 221.222 244.61 217.019 244.644C214.781 244.678 212.917 243.559 212.68 243.119C212.68 244.237 212.68 251.39 212.51 251.695C211.154 251.899 208.544 251.967 206.883 251.729ZM215.731 239.661C217.697 239.661 219.256 238.067 219.256 236.067C219.256 234.067 217.697 232.474 215.731 232.474C213.764 232.474 212.205 234.067 212.205 236.067C212.205 238.067 213.764 239.661 215.731 239.661ZM237.152 244.848C236.813 244.814 234.339 239.796 233.932 239.186C233.457 239.898 230.813 244.746 230.644 244.746C229.355 244.712 226.813 244.373 225.287 243.898C225.525 243.119 228.271 238.847 230.203 236.067C228.813 233.355 225.66 228.575 225.694 228.067C227.016 227.423 228.847 227.152 230.745 227.287C231.118 227.287 233.627 232.304 233.932 232.711C234.169 232.406 237.085 227.321 237.288 227.287C239.288 227.152 241.187 227.423 242.543 228.101C242.305 228.948 239.729 233.186 237.966 235.83C239.356 238.576 242.237 243.559 242.237 244C241.051 244.373 238.678 244.814 237.152 244.848Z" fill="#141414"/>
</svg>
