<svg width="441" height="280" viewBox="0 0 441 280" fill="none" xmlns="http://www.w3.org/2000/svg">
<rect x="1" y="1" width="439" height="278" fill="#00A9FF" fill-opacity="0.2"/>
<rect x="56.8047" y="56.8438" width="327.39" height="166.304" fill="white"/>
<path d="M102.581 112.903C118.049 112.903 130.588 100.354 130.588 84.8734C130.588 69.393 118.049 56.8438 102.581 56.8438C87.1133 56.8438 74.5742 69.393 74.5742 84.8734C74.5742 100.354 87.1133 112.903 102.581 112.903Z" fill="#141414"/>
<path d="M148.324 119.094C147.827 113.894 145.889 109.127 142.917 105.188L102.582 120.875L62.2474 105.188C59.275 109.127 57.3375 113.896 56.8398 119.094L81.9998 128.879L64.8711 135.54C67.1723 140.09 69.9381 144.368 73.1172 148.344L102.582 136.884L132.047 148.344C135.226 144.369 137.992 140.09 140.293 135.54L123.164 128.879L148.324 119.094Z" fill="#141414"/>
<path d="M220.537 78.3571C220.537 74.4006 223.702 71.2344 227.66 71.2344C231.618 71.2344 234.781 74.399 234.781 78.3571C234.781 82.3153 231.618 85.4799 227.66 85.4799C223.702 85.4799 220.537 82.3153 220.537 78.3571ZM221.329 91.3345C225.998 90.3061 230.588 90.2268 234.149 91.4138C234.464 91.7297 233.831 129.637 233.515 130.191C230.666 130.586 225.206 130.744 221.725 130.27C221.566 130.032 220.855 92.2058 221.329 91.3362V91.3345Z" fill="#141414"/>
<path d="M239.988 91.5881C244.497 90.5596 249.007 90.4802 252.41 91.6674C252.489 93.1703 252.41 96.2571 252.33 96.6523C255.337 91.5087 260.876 90.0057 266.416 91.2705C266.336 95.3858 265.546 100.45 264.596 104.486C263.25 104.091 261.193 103.694 259.293 103.694C255.257 103.694 253.517 106.305 253.042 109.787C252.806 111.528 253.437 129.887 253.202 130.125C250.037 130.599 243.864 130.758 239.908 130.204C239.67 129.887 239.67 93.1686 239.988 91.5864V91.5881Z" fill="#141414"/>
<path d="M268.378 110.536C268.378 98.3493 277.635 90.5156 286.734 90.5156C293.777 90.5156 297.259 94.3134 298.367 95.818C298.367 95.3434 298.367 92.0201 298.525 91.6233C302.799 90.6743 307.07 90.595 310.393 91.7027C310.631 91.782 310.076 129.134 309.839 130.005C306.991 130.4 301.53 130.559 298.048 130.084C297.97 129.53 297.97 126.207 297.89 125.653C296.544 127.869 292.035 130.559 286.733 130.559C277.633 130.559 268.375 122.725 268.375 110.538L268.378 110.536ZM297.574 110.536C297.574 105.867 294.093 102.149 289.504 102.149C284.914 102.149 281.433 105.869 281.433 110.536C281.433 115.204 284.914 118.924 289.504 118.924C294.093 118.924 297.574 115.204 297.574 110.536Z" fill="#141414"/>
<path d="M320.095 117.895C320.175 114.175 320.649 100.564 320.649 100.485C320.649 100.405 315.586 100.485 315.191 100.089C314.874 97.7151 314.717 93.2047 315.111 90.356H321.046C321.126 89.9608 321.126 82.2841 321.441 81.3351C324.211 80.4655 331.015 79.594 333.548 79.9099C333.786 80.3844 333.309 90.5147 333.389 90.594C335.13 90.5147 342.332 90.594 343.043 90.9099C343.36 93.2841 343.517 97.7945 343.121 100.643C342.567 101.197 333.785 100.802 333.072 100.881C333.072 101.276 332.834 110.061 332.834 114.651C332.834 117.184 334.1 118.766 336.632 118.845C339.086 118.925 341.222 117.42 341.855 117.263C343.043 119.479 344.703 123.832 345.337 126.681C345.337 126.681 342.014 130.637 333.626 130.558C324.526 130.558 320.094 125.573 320.094 117.896L320.095 117.895Z" fill="#141414"/>
<path d="M359.888 114.18C360.283 117.742 363.132 119.799 368.592 119.799C372.469 119.799 376.031 118.611 378.089 117.424C379.275 119.64 380.937 123.993 381.57 126.842C379.433 128.583 374.37 130.562 367.961 130.562C353.086 130.562 346.992 120.987 346.992 110.383C346.992 99.7778 354.034 90.2031 366.852 90.2031C378.089 90.2031 384.34 98.5129 384.34 107.375C384.34 109.829 384.18 112.203 383.786 113.785C379.75 114.339 365.111 114.339 359.89 114.18H359.888ZM360.048 105.95L372.312 105.791C372.312 101.914 370.65 99.619 366.695 99.619C362.738 99.619 360.523 102.23 360.048 105.95Z" fill="#141414"/>
<path d="M235.022 145.682C235.26 147.661 234.943 168.09 234.626 170.069C236.369 167.693 239.535 165.319 245.076 165.319C255.844 165.319 261.149 172.128 261.149 182.342C261.149 187.648 260.516 203.325 260.042 204.83C257.111 205.226 251.412 205.384 247.769 204.91C247.611 204.038 247.849 186.54 247.849 183.69C247.849 180.365 246.029 176.484 241.91 176.484C237.557 176.484 235.26 179.889 235.26 182.977C235.26 185.59 235.18 204.593 234.863 204.91C231.934 205.304 226.233 205.464 222.591 204.988C222.354 204.514 222.117 149.88 222.512 145.604C227.104 144.574 231.536 144.497 235.022 145.684V145.682Z" fill="#141414"/>
<path d="M286.661 165.373C291.015 164.423 295.29 164.343 298.615 165.453L298.536 169.728C299.09 168.778 302.891 165.215 309.383 165.215C319.12 165.215 327.67 173.053 327.67 185.247C327.67 197.441 319.199 205.2 309.383 205.28C304.157 205.358 299.802 202.746 299.248 201.717C299.248 204.329 299.248 221.037 298.853 221.749C295.686 222.223 289.591 222.382 285.71 221.828C285.473 221.749 285.948 167.116 286.661 165.373ZM314.608 185.247C314.608 180.575 310.966 176.854 306.374 176.854C301.781 176.854 298.141 180.576 298.141 185.247C298.141 189.918 301.783 193.64 306.374 193.64C310.964 193.64 314.608 189.918 314.608 185.247Z" fill="#141414"/>
<path d="M266.521 153.076C266.521 149.119 269.685 145.953 273.643 145.953C277.601 145.953 280.764 149.118 280.764 153.076C280.764 157.034 277.601 160.199 273.643 160.199C269.685 160.199 266.521 157.034 266.521 153.076ZM267.312 166.053C271.981 165.025 276.571 164.946 280.132 166.133C280.448 166.448 279.814 204.356 279.498 204.91C276.65 205.304 271.189 205.464 267.708 204.988C267.549 204.75 266.838 166.925 267.312 166.055V166.053Z" fill="#141414"/>
<path d="M193.847 205.278C210.209 205.278 216.927 196.503 216.927 188.124C216.927 177.215 209.024 173.026 197.957 170.655C189.657 168.915 188.393 167.809 188.393 165.359C188.393 162.75 190.764 160.854 196.06 160.854C203.649 160.854 209.419 163.858 210.683 164.332C212.107 161.882 214.082 156.584 214.952 153.028C211.947 150.973 204.992 148.68 195.824 148.68C181.833 148.68 174.247 156.505 174.247 165.518C174.247 175.873 180.016 181.091 190.925 183.225C199.539 184.885 201.753 186.861 201.753 189.312C201.753 192.711 198.828 193.66 193.533 193.66C186.814 193.66 180.096 189.39 178.199 188.285C176.776 190.735 174.721 196.111 173.852 199.668C176.697 201.803 184.444 205.282 193.848 205.282" fill="#141414"/>
<path d="M194.934 74.5719C187.505 74.5719 178.573 74.9671 174.305 75.3623C173.594 80.8961 173.751 126.587 174.146 130.223C178.494 130.777 185.29 130.539 188.847 130.064C189.323 128.799 189.243 121.29 189.243 114.175C192.168 114.255 192.088 114.255 194.933 114.255C207.264 114.255 216.038 106.586 216.038 94.4124C216.038 82.2386 207.264 74.5703 194.933 74.5703L194.934 74.5719ZM194.065 102.003C192.326 102.003 190.35 101.924 188.927 101.767V87.8535C190.823 87.617 191.852 87.5377 194.302 87.5377C198.255 87.5377 201.494 90.2262 201.494 94.7315C201.494 99.2371 198.255 102.005 194.065 102.005V102.003Z" fill="#141414"/>
<rect x="56.8047" y="56.8438" width="327.39" height="166.304" stroke="#00A9FF"/>
<path d="M102.582 56.8482C117.992 56.8482 130.485 44.3462 130.485 28.9242C130.485 13.5021 117.992 1 102.582 1C87.1721 1 74.6797 13.5021 74.6797 28.9242C74.6797 44.3462 87.1721 56.8482 102.582 56.8482Z" fill="#00A9FF" fill-opacity="0.2" stroke="#00A9FF" stroke-opacity="0.2" stroke-dasharray="1 1"/>
<path d="M102.582 279.004C117.992 279.004 130.485 266.502 130.485 251.08C130.485 235.658 117.992 223.156 102.582 223.156C87.1721 223.156 74.6797 235.658 74.6797 251.08C74.6797 266.502 87.1721 279.004 102.582 279.004Z" fill="#00A9FF" fill-opacity="0.2" stroke="#00A9FF" stroke-opacity="0.2" stroke-dasharray="1 1"/>
<path d="M28.9025 112.692C44.3127 112.692 56.8051 100.19 56.8051 84.7679C56.8051 69.3458 44.3127 56.8438 28.9025 56.8438C13.4924 56.8438 1 69.3458 1 84.7679C1 100.19 13.4924 112.692 28.9025 112.692Z" fill="#00A9FF" fill-opacity="0.2" stroke="#00A9FF" stroke-opacity="0.2" stroke-dasharray="1 1"/>
<path d="M412.098 112.692C427.508 112.692 440 100.19 440 84.7679C440 69.3458 427.508 56.8438 412.098 56.8438C396.688 56.8438 384.195 69.3458 384.195 84.7679C384.195 100.19 396.688 112.692 412.098 112.692Z" fill="#00A9FF" fill-opacity="0.2" stroke="#00A9FF" stroke-opacity="0.2" stroke-dasharray="1 1"/>
<rect x="1" y="56.8438" width="439" height="55.8482" rx="27.9241" stroke="#00A9FF" stroke-opacity="0.2" stroke-dasharray="1 1"/>
<rect x="74.5762" y="1" width="55.8051" height="278" rx="27.9025" stroke="#00A9FF" stroke-opacity="0.2" stroke-dasharray="1 1"/>
<rect x="1" y="1" width="439" height="278" stroke="#00A9FF"/>
</svg>
