<svg width="591" height="288" viewBox="0 0 591 288" fill="none" xmlns="http://www.w3.org/2000/svg">
<path d="M3.90861 284.254C60.1954 289.249 576.454 289.249 586.877 284.254C592.089 143.417 592.089 199.519 586.877 3.74567C577.496 -1.24855 11.2055 -1.24858 3.90907 3.7457C-1.30284 153.572 -1.30306 163.394 3.90861 284.254Z" fill="white"/>
<path d="M586.39 283.893C586.273 283.924 586.121 283.958 585.93 283.993C585.54 284.066 585.027 284.139 584.391 284.211C583.119 284.356 581.38 284.497 579.199 284.633C574.84 284.906 568.738 285.159 561.128 285.393C545.909 285.861 524.671 286.251 499.3 286.564C448.558 287.188 381.292 287.5 312.592 287.5C175.869 287.5 33.5185 286.264 4.38923 283.794C-0.799086 163.451 -0.796481 153.413 4.39748 4.08751C4.49104 4.06169 4.6089 4.03427 4.75315 4.00577C5.11653 3.93399 5.61614 3.86142 6.25327 3.78891C7.5258 3.6441 9.313 3.50329 11.5854 3.3669C16.1283 3.09425 22.584 2.84081 30.6831 2.60675C46.8798 2.13866 69.6323 1.74852 96.7626 1.43639C151.022 0.812138 222.784 0.5 294.611 0.5C366.439 0.5 438.331 0.812137 492.851 1.43639C520.112 1.74852 543.027 2.13865 559.419 2.60674C567.616 2.8408 574.178 3.09425 578.835 3.36693C581.164 3.50331 583.011 3.64418 584.346 3.78917C585.014 3.86173 585.546 3.93459 585.944 4.0071C586.131 4.04125 586.276 4.07344 586.386 4.10189C589.304 113.662 590.584 144.177 590.227 174.673C589.948 198.511 588.669 222.336 586.39 283.893Z" stroke="#141414" stroke-opacity="0.2"/>
<path d="M450.787 152.845C474.482 152.845 493.69 133.673 493.69 110.024C493.69 86.3746 474.482 67.2031 450.787 67.2031C427.093 67.2031 407.885 86.3746 407.885 110.024C407.885 133.673 427.093 152.845 450.787 152.845Z" fill="#141414"/>
<path d="M520.886 162.376C520.127 154.428 517.148 147.129 512.598 141.11L450.808 165.097L389.001 141.11C384.451 147.129 381.471 154.428 380.713 162.376L419.264 177.334L393.027 187.517C396.548 194.473 400.792 201.015 405.667 207.089L450.808 189.571L495.949 207.089C500.825 201.015 505.05 194.473 508.589 187.517L482.353 177.334L520.904 162.376H520.886Z" fill="#141414"/>
<path d="M90.2095 123.723C102.124 123.723 111.782 114.393 111.782 102.885C111.782 91.3764 102.124 82.0469 90.2095 82.0469C78.2952 82.0469 68.6367 91.3764 68.6367 102.885C68.6367 114.393 78.2952 123.723 90.2095 123.723Z" fill="#141414"/>
<path d="M125.446 128.361C125.062 124.493 123.57 120.947 121.28 118.016L90.2117 129.686L59.1419 118.016C56.8523 120.947 55.3599 124.493 54.9766 128.361L74.3565 135.641L61.164 140.598C62.9366 143.983 65.067 147.165 67.5158 150.123L90.2117 141.598L112.908 150.123C115.356 147.166 117.487 143.983 119.259 140.598L106.066 135.642L125.446 128.361Z" fill="#141414"/>
<path d="M181.068 98.049C181.068 95.1055 183.506 92.75 186.554 92.75C189.601 92.75 192.04 95.1043 192.04 98.049C192.04 100.994 189.603 103.348 186.554 103.348C183.507 103.347 181.068 100.992 181.068 98.049ZM181.678 107.704C185.274 106.938 188.809 106.879 191.552 107.763C191.796 107.998 191.308 136.199 191.065 136.611C188.871 136.905 184.664 137.023 181.983 136.67C181.86 136.493 181.313 108.352 181.678 107.704Z" fill="#141414"/>
<path d="M196.063 107.901C199.537 107.136 203.011 107.077 205.631 107.96C205.692 109.078 205.631 111.375 205.57 111.669C207.887 107.842 212.152 106.724 216.42 107.665C216.358 110.726 215.749 114.494 215.018 117.497C213.981 117.203 212.397 116.907 210.934 116.907C207.825 116.907 206.484 118.85 206.119 121.44C205.937 122.735 206.423 136.394 206.241 136.571C203.804 136.924 199.049 137.042 196.002 136.63C195.818 136.396 195.818 109.078 196.063 107.901Z" fill="#141414"/>
<path d="M217.928 121.996C217.928 112.929 225.059 107.102 232.068 107.102C237.492 107.102 240.174 109.927 241.027 111.046C241.027 110.693 241.027 108.221 241.15 107.926C244.441 107.22 247.732 107.161 250.291 107.985C250.475 108.044 250.047 135.832 249.865 136.48C247.671 136.774 243.465 136.892 240.783 136.539C240.722 136.127 240.722 133.654 240.661 133.242C239.624 134.891 236.15 136.892 232.066 136.892C225.059 136.892 217.928 131.063 217.928 121.996ZM240.417 121.996C240.417 118.522 237.736 115.756 234.201 115.756C230.666 115.756 227.984 118.524 227.984 121.996C227.984 125.468 230.666 128.236 234.201 128.236C237.736 128.237 240.417 125.47 240.417 121.996Z" fill="#141414"/>
<path d="M257.76 127.472C257.821 124.705 258.187 114.579 258.187 114.52C258.187 114.461 254.286 114.52 253.982 114.226C253.738 112.46 253.617 109.104 253.921 106.985H258.493C258.554 106.691 258.554 100.98 258.797 100.274C260.93 99.6265 266.171 98.9783 268.122 99.2133C268.305 99.5663 267.939 107.103 268 107.162C269.341 107.103 274.888 107.162 275.435 107.397C275.68 109.163 275.801 112.519 275.496 114.638C275.07 115.05 268.304 114.756 267.755 114.815C267.755 115.109 267.572 121.644 267.572 125.059C267.572 126.943 268.547 128.12 270.498 128.179C272.388 128.238 274.033 127.119 274.521 127.002C275.435 128.651 276.715 131.889 277.203 134.009C277.203 134.009 274.643 136.952 268.182 136.893C261.173 136.892 257.76 133.183 257.76 127.472Z" fill="#141414"/>
<path d="M288.278 124.713C288.582 127.363 290.776 128.893 294.982 128.893C297.968 128.893 300.711 128.01 302.297 127.126C303.211 128.775 304.491 132.013 304.978 134.133C303.333 135.428 299.433 136.9 294.496 136.9C283.038 136.9 278.344 129.777 278.344 121.888C278.344 114.293 283.768 106.875 293.641 106.875C302.297 106.875 307.111 113.057 307.111 119.65C307.111 121.476 306.989 123.242 306.685 124.419C303.575 124.831 292.3 124.831 288.278 124.713ZM288.399 118.59L297.846 118.472C297.846 115.587 296.566 113.88 293.519 113.88C290.594 113.88 288.765 115.824 288.399 118.59Z" fill="#141414"/>
<path d="M191.498 148.133C191.681 149.605 191.437 164.803 191.194 166.276C192.536 164.508 194.974 162.742 199.243 162.742C207.537 162.742 211.623 167.807 211.623 175.406C211.623 179.354 211.135 191.017 210.77 192.136C208.513 192.43 204.123 192.548 201.317 192.195C201.195 191.547 201.378 178.529 201.378 176.409C201.378 173.935 199.975 171.048 196.804 171.048C193.45 171.048 191.681 173.581 191.681 175.879C191.681 177.822 191.62 191.96 191.376 192.195C189.119 192.489 184.729 192.607 181.923 192.254C181.74 191.901 181.558 151.256 181.862 148.075C185.4 147.307 188.815 147.248 191.498 148.133Z" fill="#141414"/>
<path d="M231.288 162.787C234.642 162.08 237.935 162.021 240.496 162.846L240.435 166.027C240.861 165.32 243.789 162.669 248.789 162.669C256.29 162.669 262.876 168.501 262.876 177.572C262.876 186.644 256.351 192.417 248.789 192.476C244.764 192.535 241.41 190.591 240.983 189.825C240.983 191.768 240.983 204.198 240.679 204.728C238.239 205.081 233.544 205.199 230.556 204.787C230.372 204.729 230.739 164.084 231.288 162.787ZM252.815 177.574C252.815 174.098 250.009 171.33 246.472 171.33C242.934 171.33 240.13 174.099 240.13 177.574C240.13 181.049 242.936 183.817 246.472 183.817C250.009 183.817 252.815 181.049 252.815 177.574Z" fill="#141414"/>
<path d="M215.773 153.643C215.773 150.699 218.211 148.344 221.259 148.344C224.307 148.344 226.745 150.698 226.745 153.643C226.745 156.586 224.308 158.942 221.259 158.942C218.212 158.941 215.773 156.586 215.773 153.643ZM216.383 163.297C219.98 162.532 223.514 162.473 226.257 163.356C226.501 163.591 226.013 191.792 225.77 192.204C223.576 192.498 219.37 192.617 216.688 192.263C216.566 192.086 216.018 163.946 216.383 163.297Z" fill="#141414"/>
<path d="M159.789 192.482C172.391 192.482 177.567 185.954 177.567 179.72C177.567 171.604 171.478 168.487 162.954 166.723C156.562 165.429 155.588 164.607 155.588 162.784C155.588 160.843 157.414 159.432 161.494 159.432C167.339 159.432 171.783 161.667 172.757 162.02C173.853 160.197 175.375 156.256 176.045 153.61C173.731 152.081 168.374 150.375 161.312 150.375C150.535 150.375 144.691 156.197 144.691 162.902C144.691 170.605 149.135 174.487 157.537 176.075C164.173 177.31 165.878 178.78 165.878 180.603C165.878 183.132 163.625 183.838 159.547 183.838C154.371 183.838 149.196 180.662 147.736 179.839C146.639 181.662 145.057 185.661 144.387 188.308C146.577 189.894 152.544 192.482 159.789 192.482Z" fill="#141414"/>
<path d="M161.359 95.2422C155.637 95.2422 148.756 95.5362 145.468 95.8301C144.921 99.9471 145.042 133.939 145.346 136.644C148.695 137.056 153.93 136.879 156.671 136.526C157.036 135.585 156.975 129.998 156.975 124.705C159.228 124.764 159.167 124.764 161.358 124.764C170.856 124.764 177.614 119.059 177.614 110.003C177.614 100.946 170.858 95.2422 161.359 95.2422ZM160.69 115.65C159.35 115.65 157.828 115.591 156.732 115.474V105.123C158.192 104.947 158.984 104.888 160.872 104.888C163.916 104.888 166.412 106.888 166.412 110.24C166.412 113.591 163.916 115.65 160.69 115.65Z" fill="#141414"/>
</svg>
