<svg width="270" height="255" viewBox="0 0 270 255" fill="none" xmlns="http://www.w3.org/2000/svg">
<path d="M63.0135 69.437C72.4563 69.437 80.1111 61.763 80.1111 52.2967C80.1111 42.8303 72.4563 35.1562 63.0135 35.1562C53.5708 35.1562 45.916 42.8303 45.916 52.2967C45.916 61.763 53.5708 69.437 63.0135 69.437Z" fill="#141414"/>
<path d="M90.9392 73.2227C90.6354 70.043 89.4526 67.1281 87.638 64.7188L63.0145 74.3117L38.3911 64.7188C36.5765 67.1281 35.3936 70.044 35.0898 73.2227L50.4495 79.2062L39.9927 83.2798C41.3976 86.0622 43.0861 88.6778 45.0268 91.1094L63.0145 84.1018L81.0022 91.1094C82.943 88.6788 84.6314 86.0622 86.0363 83.2798L75.5796 79.2062L90.9392 73.2227Z" fill="#141414"/>
<path d="M135.021 48.3088C135.021 45.8893 136.953 43.9531 139.37 43.9531C141.786 43.9531 143.717 45.8883 143.717 48.3088C143.717 50.7292 141.786 52.6644 139.37 52.6644C136.953 52.6644 135.021 50.7292 135.021 48.3088ZM135.505 56.2445C138.355 55.6157 141.157 55.5672 143.331 56.2931C143.524 56.4862 143.137 79.6667 142.944 80.0055C141.205 80.2471 137.872 80.3442 135.746 80.054C135.65 79.9084 135.216 56.7774 135.505 56.2456V56.2445Z" fill="#141414"/>
<path d="M146.895 56.4057C149.647 55.7768 152.4 55.7283 154.478 56.4542C154.527 57.3733 154.478 59.2609 154.429 59.5025C156.265 56.3572 159.646 55.4381 163.028 56.2115C162.979 58.7281 162.497 61.8249 161.917 64.2929C161.095 64.0513 159.84 63.8086 158.68 63.8086C156.216 63.8086 155.154 65.4051 154.864 67.5344C154.72 68.599 155.105 79.8258 154.961 79.9715C153.029 80.2616 149.261 80.3586 146.846 80.02C146.7 79.8258 146.7 57.3722 146.895 56.4047V56.4057Z" fill="#141414"/>
<path d="M164.226 67.9929C164.226 60.5404 169.877 55.75 175.433 55.75C179.732 55.75 181.858 58.0724 182.534 58.9924C182.534 58.7022 182.534 56.67 182.631 56.4274C185.239 55.8471 187.847 55.7985 189.876 56.4759C190.021 56.5244 189.682 79.3653 189.537 79.8981C187.799 80.1398 184.465 80.2368 182.34 79.9466C182.292 79.6079 182.292 77.5757 182.243 77.237C181.421 78.5918 178.668 80.2368 175.432 80.2368C169.877 80.2368 164.225 75.4464 164.225 67.9939L164.226 67.9929ZM182.05 67.9929C182.05 65.1376 179.925 62.8638 177.123 62.8638C174.322 62.8638 172.196 65.1387 172.196 67.9929C172.196 70.8471 174.322 73.122 177.123 73.122C179.925 73.122 182.05 70.8471 182.05 67.9929Z" fill="#141414"/>
<path d="M195.799 72.4873C195.848 70.2124 196.137 61.8893 196.137 61.8408C196.137 61.7923 193.046 61.8408 192.805 61.5992C192.611 60.1473 192.515 57.3891 192.756 55.6471H196.379C196.428 55.4054 196.428 50.7111 196.621 50.1307C198.311 49.599 202.465 49.0661 204.011 49.2592C204.157 49.5494 203.866 55.7441 203.915 55.7927C204.978 55.7441 209.374 55.7927 209.808 55.9858C210.001 57.4377 210.097 60.1958 209.856 61.9379C209.518 62.2766 204.156 62.035 203.721 62.0835C203.721 62.3251 203.576 67.6969 203.576 70.5036C203.576 72.0526 204.349 73.0201 205.894 73.0686C207.392 73.1172 208.696 72.1971 209.083 72.1011C209.808 73.4559 210.821 76.118 211.208 77.8601C211.208 77.8601 209.18 80.2796 204.059 80.231C198.504 80.231 195.798 77.1826 195.798 72.4883L195.799 72.4873Z" fill="#141414"/>
<path d="M220.091 70.2249C220.333 72.4027 222.072 73.6605 225.405 73.6605C227.772 73.6605 229.946 72.9345 231.203 72.2085C231.927 73.5634 232.941 76.2255 233.328 77.9676C232.023 79.0322 228.932 80.2425 225.02 80.2425C215.939 80.2425 212.219 74.3874 212.219 67.9024C212.219 61.4175 216.517 55.5625 224.343 55.5625C231.203 55.5625 235.019 60.644 235.019 66.0633C235.019 67.5637 234.921 69.0157 234.68 69.9832C232.217 70.3219 223.28 70.3219 220.093 70.2249H220.091ZM220.189 65.1918L227.676 65.0947C227.676 62.7238 226.662 61.3204 224.247 61.3204C221.831 61.3204 220.479 62.9169 220.189 65.1918Z" fill="#141414"/>
<path d="M143.864 89.4848C144.009 90.695 143.816 103.188 143.622 104.398C144.686 102.945 146.619 101.493 150.001 101.493C156.575 101.493 159.814 105.657 159.814 111.903C159.814 115.147 159.427 124.734 159.138 125.654C157.349 125.896 153.869 125.993 151.646 125.703C151.549 125.17 151.694 114.47 151.694 112.727C151.694 110.694 150.583 108.321 148.069 108.321C145.411 108.321 144.009 110.403 144.009 112.291C144.009 113.889 143.96 125.51 143.767 125.703C141.979 125.944 138.498 126.042 136.275 125.751C136.13 125.462 135.985 92.0519 136.227 89.4373C139.03 88.8074 141.736 88.7599 143.864 89.4858V89.4848Z" fill="#141414"/>
<path d="M175.387 101.526C178.046 100.945 180.656 100.896 182.685 101.575L182.637 104.189C182.975 103.608 185.296 101.429 189.259 101.429C195.203 101.429 200.423 106.223 200.423 113.679C200.423 121.136 195.251 125.881 189.259 125.929C186.069 125.977 183.41 124.38 183.072 123.751C183.072 125.348 183.072 135.565 182.831 136.001C180.897 136.29 177.176 136.387 174.807 136.049C174.662 136.001 174.953 102.592 175.387 101.526ZM192.449 113.679C192.449 110.822 190.225 108.547 187.422 108.547C184.618 108.547 182.396 110.823 182.396 113.679C182.396 116.536 184.62 118.811 187.422 118.811C190.224 118.811 192.449 116.536 192.449 113.679Z" fill="#141414"/>
<path d="M163.094 93.9963C163.094 91.5768 165.025 89.6406 167.441 89.6406C169.858 89.6406 171.789 91.5757 171.789 93.9963C171.789 96.4167 169.858 98.3519 167.441 98.3519C165.025 98.3519 163.094 96.4167 163.094 93.9963ZM163.577 101.932C166.427 101.303 169.229 101.255 171.403 101.981C171.595 102.174 171.208 125.355 171.016 125.693C169.277 125.934 165.943 126.032 163.818 125.741C163.721 125.596 163.287 102.465 163.577 101.933V101.932Z" fill="#141414"/>
<path d="M118.726 125.923C128.715 125.923 132.816 120.557 132.816 115.433C132.816 108.762 127.991 106.2 121.235 104.751C116.169 103.687 115.397 103.01 115.397 101.512C115.397 99.9167 116.844 98.7569 120.077 98.7569C124.71 98.7569 128.233 100.594 129.004 100.884C129.874 99.3858 131.079 96.1464 131.611 93.9716C129.776 92.7149 125.53 91.3125 119.933 91.3125C111.392 91.3125 106.761 96.0978 106.761 101.609C106.761 107.941 110.283 111.132 116.942 112.438C122.201 113.453 123.553 114.661 123.553 116.159C123.553 118.238 121.767 118.819 118.535 118.819C114.433 118.819 110.331 116.207 109.174 115.532C108.305 117.03 107.05 120.317 106.52 122.493C108.256 123.798 112.986 125.925 118.727 125.925" fill="#141414"/>
<path d="M119.392 46.001C114.856 46.001 109.404 46.2426 106.798 46.4843C106.364 49.8683 106.46 77.8089 106.701 80.0323C109.355 80.3709 113.504 80.2253 115.676 79.9351C115.966 79.1617 115.917 74.5695 115.917 70.2189C117.703 70.2674 117.654 70.2674 119.391 70.2674C126.919 70.2674 132.275 65.5781 132.275 58.1337C132.275 50.6892 126.919 46 119.391 46L119.392 46.001ZM118.861 62.7754C117.8 62.7754 116.593 62.7269 115.724 62.6309V54.1228C116.882 53.9782 117.51 53.9297 119.006 53.9297C121.419 53.9297 123.396 55.5737 123.396 58.3288C123.396 61.084 121.419 62.7765 118.861 62.7765V62.7754Z" fill="#141414"/>
<rect x="35.0664" y="35.1562" width="199.864" height="101.696" stroke="#00A9FF"/>
<rect x="1" y="1" width="268" height="170" stroke="#00A9FF"/>
<path d="M36.5 191H233.5M36.5 195V187M233.5 195V187" stroke="#141414" stroke-opacity="0.8" stroke-width="3" stroke-linecap="round"/>
<path d="M22.3736 243.932C22.1363 244.034 16.814 244.305 16.6106 243.966C16.475 242.847 16.7462 232.44 16.814 227.118C16.3394 227.491 11.5934 230.067 11.051 230.237C10.373 229.253 9.4916 227.253 9.2204 225.931C9.8645 225.118 18.4073 220.677 19.2209 220.406C19.8311 220.439 22.1702 220.88 22.5431 221.287C22.5431 223.592 22.5431 242.678 22.3736 243.932ZM43.6316 244.441C42.3434 244.576 39.8348 244.61 38.2754 244.407L38.3093 240C37.2584 240.068 30.4784 240.135 28.7834 240.034C28.58 239.152 28.2071 236.508 28.2749 235.559C29.2919 233.152 36.0041 222.473 37.733 220.304C39.0551 220.338 42.5468 220.609 43.8011 221.084L43.7672 235.355C44.1062 235.355 46.1402 235.389 46.7165 235.457C46.886 236.508 46.9199 238.576 46.7165 239.864C46.6148 239.932 44.0384 239.932 43.5638 239.932L43.6316 244.441ZM33.7667 235.457L38.3771 235.423L38.6483 227.389L38.4788 227.355C37.8347 228.27 34.3769 234.067 33.7667 235.457ZM55.7132 227.864C57.6794 227.423 59.5778 227.389 61.0694 227.897C61.0355 228.609 61.0016 229.592 60.9677 229.83C61.7135 228.711 63.0017 227.491 65.7815 227.491C67.6799 227.491 69.2054 228.44 70.0868 229.965C71.2733 227.931 73.8497 227.491 75.2057 227.491C79.4771 227.491 81.3755 230.338 81.3755 234.677C81.3755 237.017 81.2399 242.949 81.1382 244.509C79.8839 244.678 77.4092 244.746 75.8498 244.542C75.7481 244.339 75.9176 236.847 75.9176 235.22C75.9176 233.559 75.4769 232.304 73.6802 232.304C71.8157 232.304 71.2733 234.135 71.2733 235.186C71.2733 237.627 71.2055 242.678 71.0699 244.373C69.8495 244.542 67.4087 244.61 65.8493 244.407C65.7137 244.339 65.8832 236.372 65.8832 235.22C65.8832 233.559 65.4086 232.304 63.6458 232.304C61.883 232.304 61.1711 233.796 61.1711 234.881C61.1711 235.83 61.1033 244.305 60.9677 244.475C59.7473 244.644 57.3404 244.712 55.8149 244.509C55.7471 244.373 55.6115 235.084 55.7132 227.864ZM84.7467 227.864C86.7129 227.423 88.6113 227.389 90.1029 227.897C90.069 228.609 90.0351 229.592 90.0012 229.83C90.747 228.711 92.0352 227.491 94.815 227.491C96.7134 227.491 98.2389 228.44 99.1203 229.965C100.307 227.931 102.883 227.491 104.239 227.491C108.511 227.491 110.409 230.338 110.409 234.677C110.409 237.017 110.273 242.949 110.172 244.509C108.917 244.678 106.443 244.746 104.883 244.542C104.782 244.339 104.951 236.847 104.951 235.22C104.951 233.559 104.51 232.304 102.714 232.304C100.849 232.304 100.307 234.135 100.307 235.186C100.307 237.627 100.239 242.678 100.103 244.373C98.883 244.542 96.4422 244.61 94.8828 244.407C94.7472 244.339 94.9167 236.372 94.9167 235.22C94.9167 233.559 94.4421 232.304 92.6793 232.304C90.9165 232.304 90.2046 233.796 90.2046 234.881C90.2046 235.83 90.1368 244.305 90.0012 244.475C88.7808 244.644 86.3739 244.712 84.8484 244.509C84.7806 244.373 84.645 235.084 84.7467 227.864ZM128.469 244.712C123.351 244.712 119.452 241.39 119.452 236C119.452 231.593 122.808 227.423 128.402 227.423C133.521 227.423 137.487 230.711 137.487 236.101C137.487 240.678 134.232 244.61 128.469 244.712ZM128.469 239.661C130.436 239.661 131.893 238.067 131.893 236.067C131.893 234.067 130.436 232.474 128.469 232.474C126.503 232.474 125.046 234.067 125.046 236.067C125.046 238.067 126.503 239.661 128.469 239.661ZM140.134 244.441C140.032 244.305 140.032 228.575 140.168 227.897C142.1 227.457 144.032 227.423 145.49 227.931C145.524 228.575 145.49 229.898 145.456 230.067C146.744 227.864 149.117 227.219 151.49 227.762C151.456 229.525 151.117 231.694 150.711 233.423C150.134 233.254 149.253 233.084 148.439 233.084C146.71 233.084 145.965 234.203 145.761 235.694C145.659 236.44 145.931 244.305 145.829 244.407C144.473 244.61 141.829 244.678 140.134 244.441ZM172.143 243.932C171.905 244.034 166.583 244.305 166.38 243.966C166.244 242.847 166.515 232.44 166.583 227.118C166.109 227.491 161.363 230.067 160.82 230.237C160.142 229.253 159.261 227.253 158.99 225.931C159.634 225.118 168.176 220.677 168.99 220.406C169.6 220.439 171.939 220.88 172.312 221.287C172.312 223.592 172.312 242.678 172.143 243.932ZM187.265 244.949C181.671 244.949 178.247 240.983 178.247 232.643C178.247 224.304 181.671 220.372 187.265 220.372C192.858 220.372 196.282 224.304 196.282 232.643C196.282 240.983 192.858 244.949 187.265 244.949ZM187.265 239.83C189.638 239.83 190.587 237.084 190.587 232.643C190.587 228.203 189.638 225.728 187.265 225.728C184.824 225.728 183.943 228.203 183.943 232.643C183.943 237.084 184.824 239.83 187.265 239.83ZM206.929 244.949C201.336 244.949 197.912 240.983 197.912 232.643C197.912 224.304 201.336 220.372 206.929 220.372C212.523 220.372 215.947 224.304 215.947 232.643C215.947 240.983 212.523 244.949 206.929 244.949ZM206.929 239.83C209.302 239.83 210.252 237.084 210.252 232.643C210.252 228.203 209.302 225.728 206.929 225.728C204.489 225.728 203.607 228.203 203.607 232.643C203.607 237.084 204.489 239.83 206.929 239.83ZM225.079 251.729C224.977 251.695 225.181 228.304 225.486 227.558C227.35 227.152 229.181 227.118 230.605 227.592L230.571 229.423C230.808 229.016 232.435 227.491 235.215 227.491C239.385 227.491 243.046 230.847 243.046 236.067C243.046 241.288 239.419 244.61 235.215 244.644C232.978 244.678 231.113 243.559 230.876 243.119C230.876 244.237 230.876 251.39 230.707 251.695C229.351 251.899 226.74 251.967 225.079 251.729ZM233.927 239.661C235.893 239.661 237.453 238.067 237.453 236.067C237.453 234.067 235.893 232.474 233.927 232.474C231.961 232.474 230.401 234.067 230.401 236.067C230.401 238.067 231.961 239.661 233.927 239.661ZM255.349 244.848C255.01 244.814 252.535 239.796 252.128 239.186C251.654 239.898 249.01 244.746 248.84 244.746C247.552 244.712 245.009 244.373 243.484 243.898C243.721 243.119 246.467 238.847 248.399 236.067C247.01 233.355 243.857 228.575 243.891 228.067C245.213 227.423 247.043 227.152 248.942 227.287C249.315 227.287 251.823 232.304 252.128 232.711C252.366 232.406 255.281 227.321 255.485 227.287C257.485 227.152 259.383 227.423 260.739 228.101C260.502 228.948 257.925 233.186 256.163 235.83C257.552 238.576 260.434 243.559 260.434 244C259.247 244.373 256.874 244.814 255.349 244.848Z" fill="#141414"/>
</svg>
