<?xml version="1.0" encoding="UTF-8"?>
<svg id="d" xmlns="http://www.w3.org/2000/svg" viewBox="0 0 495.88 290.36">
    <defs>
        <style>
            .d, .e {
            fill: none;
            stroke: #000;
            stroke-width: 2px;
            }

            .e {
            stroke-miterlimit: 10;
            }
        </style>
    </defs>
    <g>
        <circle class="e" cx="98.4" cy="75.59" r="35.59"/>
        <path class="e"
              d="m156.53,119.09c-.63-6.61-3.09-12.66-6.87-17.67l-51.26,19.93-51.26-19.93c-3.78,5.01-6.24,11.06-6.87,17.67l31.97,12.43-21.77,8.46c2.92,5.78,6.44,11.22,10.48,16.27l37.44-14.56,37.44,14.56c4.04-5.05,7.56-10.49,10.48-16.27l-21.77-8.46,31.97-12.43Z"/>
    </g>
    <g>
        <path class="d"
              d="m248.12,67.41c0-5.02,4.02-9.04,9.04-9.04s9.04,4.02,9.04,9.04-4.02,9.04-9.04,9.04-9.04-4.02-9.04-9.04Zm1,16.48c5.93-1.31,11.75-1.41,16.28.1.4.4-.4,48.52-.8,49.23-3.62.5-10.55.7-14.97.1-.2-.3-1.11-48.32-.5-49.43Z"/>
        <path class="d"
              d="m272.82,84.22c5.73-1.31,11.45-1.41,15.77.1.1,1.91,0,5.83-.1,6.33,3.82-6.53,10.85-8.44,17.88-6.83-.1,5.22-1.11,11.65-2.31,16.78-1.71-.5-4.32-1-6.73-1-5.12,0-7.33,3.32-7.94,7.74-.3,2.21.5,25.52.2,25.82-4.02.6-11.85.8-16.88.1-.3-.4-.3-47.02.1-49.03Z"/>
        <path class="d"
              d="m308.87,108.27c0-15.47,11.75-25.42,23.31-25.42,8.94,0,13.36,4.82,14.77,6.73,0-.6,0-4.82.2-5.32,5.43-1.21,10.85-1.31,15.07.1.3.1-.4,47.52-.7,48.62-3.62.5-10.55.7-14.97.1-.1-.7-.1-4.92-.2-5.63-1.71,2.81-7.43,6.23-14.17,6.23-11.55,0-23.31-9.95-23.31-25.42Zm37.07,0c0-5.93-4.42-10.65-10.25-10.65s-10.25,4.72-10.25,10.65,4.42,10.65,10.25,10.65,10.25-4.72,10.25-10.65Z"/>
        <path class="d"
              d="m374.52,117.61c.1-4.72.7-22,.7-22.1s-6.43,0-6.93-.5c-.4-3.01-.6-8.74-.1-12.36h7.53c.1-.5.1-10.25.5-11.45,3.52-1.11,12.16-2.21,15.37-1.81.3.6-.3,13.46-.2,13.56,2.21-.1,11.35,0,12.26.4.4,3.01.6,8.74.1,12.36-.7.7-11.85.2-12.76.3,0,.5-.3,11.65-.3,17.48,0,3.21,1.61,5.22,4.82,5.32,3.11.1,5.83-1.81,6.63-2.01,1.51,2.81,3.62,8.34,4.42,11.96,0,0-4.22,5.02-14.87,4.92-11.55,0-17.18-6.33-17.18-16.07Z"/>
        <path class="d"
              d="m424.83,112.89c.5,4.52,4.12,7.13,11.05,7.13,4.92,0,9.44-1.51,12.06-3.01,1.51,2.81,3.62,8.34,4.42,11.96-2.71,2.21-9.14,4.72-17.28,4.72-18.89,0-26.62-12.16-26.62-25.62s8.94-25.62,25.22-25.62c14.27,0,22.2,10.55,22.2,21.8,0,3.11-.2,6.13-.7,8.14-5.12.7-23.71.7-30.34.5Zm.2-10.45l15.57-.2c0-4.92-2.11-7.84-7.13-7.84s-7.84,3.32-8.44,8.04Z"/>
        <path class="d"
              d="m265.31,152.88c.3,2.51-.1,28.45-.5,30.96,2.21-3.02,6.23-6.03,13.27-6.03,13.67,0,20.41,8.64,20.41,21.61,0,6.73-.8,26.64-1.41,28.55-3.72.5-10.96.7-15.58.1-.2-1.11.1-23.32.1-26.94,0-4.22-2.31-9.15-7.54-9.15-5.53,0-8.44,4.32-8.44,8.24,0,3.32-.1,27.44-.5,27.84-3.72.5-10.96.7-15.58.1-.3-.6-.6-69.96-.1-75.39,5.83-1.31,11.46-1.41,15.88.1Z"/>
        <path class="d"
              d="m330.89,177.88c5.53-1.21,10.96-1.31,15.18.1l-.1,5.43c.7-1.21,5.53-5.73,13.77-5.73,12.36,0,23.22,9.95,23.22,25.43s-10.76,25.33-23.22,25.43c-6.63.1-12.16-3.22-12.87-4.52,0,3.32,0,24.53-.5,25.43-4.02.6-11.76.8-16.69.1-.3-.1.3-69.46,1.21-71.67Zm35.48,25.23c0-5.93-4.62-10.65-10.45-10.65s-10.45,4.72-10.45,10.65,4.62,10.65,10.45,10.65,10.45-4.72,10.45-10.65Z"/>
        <path class="d"
              d="m305.32,162.26c0-5.02,4.02-9.04,9.04-9.04s9.04,4.02,9.04,9.04-4.02,9.04-9.04,9.04-9.04-4.02-9.04-9.04Zm1,16.48c5.93-1.31,11.75-1.41,16.28.1.4.4-.4,48.52-.8,49.23-3.62.5-10.55.7-14.97.1-.2-.3-1.11-48.32-.5-49.43Z"/>
        <path class="d"
              d="m213.04,228.54c20.77,0,29.3-11.14,29.3-21.78,0-13.85-10.04-19.17-24.09-22.18-10.54-2.21-12.14-3.61-12.14-6.72,0-3.31,3.01-5.72,9.73-5.72,9.63,0,16.96,3.81,18.57,4.42,1.81-3.11,4.32-9.83,5.42-14.35-3.81-2.61-12.64-5.52-24.29-5.52-17.76,0-27.4,9.94-27.4,21.38,0,13.15,7.33,19.77,21.18,22.48,10.94,2.11,13.75,4.62,13.75,7.73,0,4.32-3.71,5.52-10.44,5.52-8.53,0-17.06-5.42-19.47-6.82-1.81,3.11-4.42,9.94-5.52,14.45,3.61,2.71,13.45,7.13,25.39,7.13"/>
        <path class="d"
              d="m215.62,62.6c-9.43,0-20.77.5-26.19,1-.9,7.02-.7,65.03-.2,69.65,5.52.7,14.15.4,18.67-.2.6-1.61.5-11.14.5-20.17,3.71.1,3.61.1,7.23.1,15.66,0,26.79-9.73,26.79-25.19s-11.14-25.19-26.79-25.19Zm-1.1,34.82c-2.21,0-4.72-.1-6.52-.3v-17.66c2.41-.3,3.71-.4,6.82-.4,5.02,0,9.13,3.41,9.13,9.13s-4.11,9.23-9.43,9.23Z"/>
    </g>
</svg>