<svg width="1155" height="369" viewBox="0 0 1155 369" fill="none" xmlns="http://www.w3.org/2000/svg">
<path d="M1149.69 366.334C1149.47 366.358 1149.16 366.383 1148.76 366.409C1148.06 366.453 1147.11 366.497 1145.91 366.541C1143.53 366.628 1140.18 366.712 1135.92 366.793C1127.42 366.956 1115.31 367.106 1100.09 367.246C1069.66 367.525 1026.82 367.757 975.559 367.943C873.03 368.314 736.808 368.5 598.81 368.5C323.926 368.5 42.0239 367.763 5.30191 366.289C-1.10421 294.103 -1.10105 91.8411 5.31388 2.65738C5.50911 2.63569 5.77358 2.61359 6.10896 2.59131C6.77905 2.54681 7.71461 2.50275 8.90957 2.45926C11.2985 2.37233 14.7099 2.28821 19.0773 2.20694C27.8114 2.04441 40.3599 1.89347 56.1795 1.75412C87.8182 1.47543 132.536 1.24319 185.98 1.05739C292.868 0.685798 434.659 0.5 576.532 0.5C718.404 0.5 860.357 0.685798 967.568 1.05739C1021.17 1.24319 1066.09 1.47543 1097.97 1.75411C1113.91 1.89346 1126.59 2.0444 1135.47 2.20693C1139.91 2.2882 1143.39 2.37233 1145.86 2.45927C1147.09 2.50275 1148.06 2.54684 1148.77 2.59141C1149.17 2.6163 1149.47 2.64068 1149.68 2.66291C1156.1 118.971 1156.11 282.508 1149.69 366.334Z" stroke="white" stroke-opacity="0.2"/>
</svg>
