<svg
   width="762"
   height="762"
   viewBox="0 0 762 762"
   fill="none"
   xmlns="http://www.w3.org/2000/svg"
>
  <path
     d="M756.679 759.342C756.177 759.406 755.296 759.474 754.023 759.541C752.381 759.628 750.134 759.712 747.32 759.793C741.693 759.956 733.806 760.107 723.967 760.246C704.288 760.525 676.803 760.757 643.966 760.943C578.292 761.314 491.21 761.5 402.349 761.5C225.348 761.5 41.3125 760.763 5.31112 759.289C2.10482 722.451 0.499895 556.05 0.5 387.466C0.500105 218.691 2.10875 47.8051 5.32356 2.64761C5.45492 2.62997 5.6274 2.61051 5.84639 2.59035C6.32577 2.54622 6.97809 2.50235 7.80055 2.45894C9.44453 2.37218 11.7515 2.28812 14.6794 2.20687C20.5345 2.0444 28.8606 1.89348 39.307 1.75413C60.199 1.47546 89.5638 1.24322 124.585 1.05742C194.626 0.685819 287.287 0.500011 380.03 0.5C472.773 0.499989 565.596 0.685776 635.96 1.05736C671.143 1.24315 700.71 1.47538 721.845 1.75405C732.412 1.89339 740.87 2.04431 746.866 2.20679C749.865 2.28804 752.246 2.3721 753.966 2.4589C754.826 2.50232 755.518 2.54625 756.038 2.59055C756.299 2.61284 756.509 2.63462 756.671 2.65511C763.107 119.856 763.109 674.311 756.679 759.342Z"
     stroke="white"
     stroke-opacity="0.2" />
</svg>
