<?xml version="1.0" encoding="utf-8"?>
<!-- Generator: Adobe Illustrator 27.2.0, SVG Export Plug-In . SVG Version: 6.00 Build 0)  -->
<svg version="1.1" id="Ebene_1" xmlns="http://www.w3.org/2000/svg" xmlns:xlink="http://www.w3.org/1999/xlink" x="0px" y="0px"
	 viewBox="0 0 591 288" style="enable-background:new 0 0 591 288;" xml:space="preserve">
<style type="text/css">
	.st0{fill:#141414;}
	.st1{fill:none;stroke:#FFFFFF;stroke-opacity:0.2;}
	.st2{fill:#FFFFFF;}
</style>
<path class="st0" d="M0,288h590.8L591,0H0V288z"/>
<path class="st1" d="M0,288h590.8L591,0H0V288z"/>
<path class="st2" d="M451.1,152.8c23.7,0,42.9-19.2,42.9-42.8c0-23.6-19.2-42.8-42.9-42.8c-23.7,0-42.9,19.2-42.9,42.8
	C408.2,133.7,427.4,152.8,451.1,152.8z"/>
<path class="st2" d="M521.2,162.4c-0.8-7.9-3.7-15.2-8.3-21.3l-61.8,24l-61.8-24c-4.5,6-7.5,13.3-8.3,21.3l38.6,15l-26.2,10.2
	c3.5,7,7.8,13.5,12.6,19.6l45.1-17.5l45.1,17.5c4.9-6.1,9.1-12.6,12.6-19.6l-26.2-10.2L521.2,162.4L521.2,162.4z"/>
<path class="st2" d="M90.2,123.7c11.9,0,21.6-9.3,21.6-20.8c0-11.5-9.7-20.8-21.6-20.8c-11.9,0-21.6,9.3-21.6,20.8
	C68.7,114.4,78.3,123.7,90.2,123.7z"/>
<path class="st2" d="M125.5,128.4c-0.4-3.9-1.9-7.4-4.2-10.3l-31.1,11.7L59.2,118c-2.3,2.9-3.8,6.5-4.2,10.3l19.4,7.3l-13.2,5
	c1.8,3.4,3.9,6.6,6.4,9.5l22.7-8.5l22.7,8.5c2.4-3,4.6-6.1,6.4-9.5l-13.2-5L125.5,128.4z"/>
<path class="st2" d="M181.1,98c0-2.9,2.4-5.3,5.5-5.3c3,0,5.5,2.4,5.5,5.3c0,2.9-2.4,5.3-5.5,5.3C183.5,103.3,181.1,101,181.1,98z
	 M181.7,107.7c3.6-0.8,7.1-0.8,9.9,0.1c0.2,0.2-0.2,28.4-0.5,28.8c-2.2,0.3-6.4,0.4-9.1,0.1C181.9,136.5,181.3,108.4,181.7,107.7z"
	/>
<path class="st2" d="M196.1,107.9c3.5-0.8,6.9-0.8,9.6,0.1c0.1,1.1,0,3.4-0.1,3.7c2.3-3.8,6.6-4.9,10.8-4c-0.1,3.1-0.7,6.8-1.4,9.8
	c-1-0.3-2.6-0.6-4.1-0.6c-3.1,0-4.4,1.9-4.8,4.5c-0.2,1.3,0.3,15,0.1,15.1c-2.4,0.4-7.2,0.5-10.2,0.1
	C195.8,136.4,195.8,109.1,196.1,107.9z"/>
<path class="st2" d="M218,122c0-9.1,7.1-14.9,14.1-14.9c5.4,0,8.1,2.8,9,3.9c0-0.4,0-2.8,0.1-3.1c3.3-0.7,6.6-0.8,9.1,0.1
	c0.2,0.1-0.2,27.8-0.4,28.5c-2.2,0.3-6.4,0.4-9.1,0.1c-0.1-0.4-0.1-2.9-0.1-3.3c-1,1.6-4.5,3.6-8.6,3.6
	C225.1,136.9,218,131.1,218,122z M240.4,122c0-3.5-2.7-6.2-6.2-6.2s-6.2,2.8-6.2,6.2s2.7,6.2,6.2,6.2
	C237.8,128.2,240.4,125.5,240.4,122z"/>
<path class="st2" d="M257.8,127.5c0.1-2.8,0.4-12.9,0.4-13c0-0.1-3.9,0-4.2-0.3c-0.2-1.8-0.4-5.1-0.1-7.2h4.6c0.1-0.3,0.1-6,0.3-6.7
	c2.1-0.6,7.4-1.3,9.3-1.1c0.2,0.4-0.2,7.9-0.1,7.9c1.3-0.1,6.9,0,7.4,0.2c0.2,1.8,0.4,5.1,0.1,7.2c-0.4,0.4-7.2,0.1-7.7,0.2
	c0,0.3-0.2,6.8-0.2,10.2c0,1.9,1,3.1,2.9,3.1c1.9,0.1,3.5-1.1,4-1.2c0.9,1.6,2.2,4.9,2.7,7c0,0-2.6,2.9-9,2.9
	C261.2,136.9,257.8,133.2,257.8,127.5z"/>
<path class="st2" d="M288.3,124.7c0.3,2.7,2.5,4.2,6.7,4.2c3,0,5.7-0.9,7.3-1.8c0.9,1.6,2.2,4.9,2.7,7c-1.6,1.3-5.5,2.8-10.5,2.8
	c-11.5,0-16.2-7.1-16.2-15c0-7.6,5.4-15,15.3-15c8.7,0,13.5,6.2,13.5,12.8c0,1.8-0.1,3.6-0.4,4.8
	C303.6,124.8,292.3,124.8,288.3,124.7z M288.4,118.6l9.4-0.1c0-2.9-1.3-4.6-4.3-4.6C290.6,113.9,288.8,115.8,288.4,118.6z"/>
<path class="st2" d="M191.5,148.1c0.2,1.5-0.1,16.7-0.3,18.1c1.3-1.8,3.8-3.5,8-3.5c8.3,0,12.4,5.1,12.4,12.7
	c0,3.9-0.5,15.6-0.9,16.7c-2.3,0.3-6.6,0.4-9.5,0.1c-0.1-0.6,0.1-13.7,0.1-15.8c0-2.5-1.4-5.4-4.6-5.4c-3.4,0-5.1,2.5-5.1,4.8
	c0,1.9-0.1,16.1-0.3,16.3c-2.3,0.3-6.6,0.4-9.5,0.1c-0.2-0.4-0.4-41-0.1-44.2C185.4,147.3,188.8,147.2,191.5,148.1z"/>
<path class="st2" d="M231.3,162.8c3.4-0.7,6.6-0.8,9.2,0.1l-0.1,3.2c0.4-0.7,3.4-3.4,8.4-3.4c7.5,0,14.1,5.8,14.1,14.9
	c0,9.1-6.5,14.8-14.1,14.9c-4,0.1-7.4-1.9-7.8-2.7c0,1.9,0,14.4-0.3,14.9c-2.4,0.4-7.1,0.5-10.1,0.1
	C230.4,204.7,230.8,164.1,231.3,162.8z M252.8,177.6c0-3.5-2.8-6.2-6.3-6.2c-3.5,0-6.3,2.8-6.3,6.2c0,3.5,2.8,6.2,6.3,6.2
	C250,183.8,252.8,181,252.8,177.6z"/>
<path class="st2" d="M215.8,153.6c0-2.9,2.4-5.3,5.5-5.3c3,0,5.5,2.4,5.5,5.3c0,2.9-2.4,5.3-5.5,5.3
	C218.2,158.9,215.8,156.6,215.8,153.6z M216.4,163.3c3.6-0.8,7.1-0.8,9.9,0.1c0.2,0.2-0.2,28.4-0.5,28.8c-2.2,0.3-6.4,0.4-9.1,0.1
	C216.6,192.1,216,163.9,216.4,163.3z"/>
<path class="st2" d="M159.8,192.5c12.6,0,17.8-6.5,17.8-12.8c0-8.1-6.1-11.2-14.6-13c-6.4-1.3-7.4-2.1-7.4-3.9
	c0-1.9,1.8-3.4,5.9-3.4c5.8,0,10.3,2.2,11.3,2.6c1.1-1.8,2.6-5.8,3.3-8.4c-2.3-1.5-7.7-3.2-14.7-3.2c-10.8,0-16.6,5.8-16.6,12.5
	c0,7.7,4.4,11.6,12.8,13.2c6.6,1.2,8.3,2.7,8.3,4.5c0,2.5-2.3,3.2-6.3,3.2c-5.2,0-10.4-3.2-11.8-4c-1.1,1.8-2.7,5.8-3.3,8.5
	C146.6,189.9,152.6,192.5,159.8,192.5z"/>
<path class="st2" d="M161.4,95.2c-5.7,0-12.6,0.3-15.9,0.6c-0.5,4.1-0.4,38.1-0.1,40.8c3.3,0.4,8.6,0.2,11.3-0.1
	c0.4-0.9,0.3-6.5,0.3-11.8c2.3,0.1,2.2,0.1,4.4,0.1c9.5,0,16.3-5.7,16.3-14.8C177.6,100.9,170.9,95.2,161.4,95.2z M160.7,115.7
	c-1.3,0-2.9-0.1-4-0.2v-10.4c1.5-0.2,2.3-0.2,4.1-0.2c3,0,5.5,2,5.5,5.4C166.4,113.6,163.9,115.7,160.7,115.7z"/>
</svg>
