<svg width="591" height="288" viewBox="0 0 591 288" fill="none" xmlns="http://www.w3.org/2000/svg">
<path d="M3.90861 284.254C60.1954 289.249 576.454 289.249 586.877 284.254C592.089 143.417 592.089 199.519 586.877 3.74567C577.496 -1.24855 11.2055 -1.24858 3.90907 3.7457C-1.30284 153.572 -1.30306 163.394 3.90861 284.254Z" fill="#141414"/>
<path d="M586.39 283.893C586.273 283.924 586.121 283.958 585.93 283.993C585.54 284.066 585.027 284.139 584.391 284.211C583.119 284.356 581.38 284.497 579.199 284.633C574.84 284.906 568.738 285.159 561.128 285.393C545.909 285.861 524.671 286.251 499.3 286.564C448.558 287.188 381.292 287.5 312.592 287.5C175.869 287.5 33.5185 286.264 4.38923 283.794C-0.799086 163.451 -0.796481 153.413 4.39748 4.08751C4.49104 4.06169 4.6089 4.03427 4.75315 4.00577C5.11653 3.93399 5.61614 3.86142 6.25327 3.78891C7.5258 3.6441 9.313 3.50329 11.5854 3.3669C16.1283 3.09425 22.584 2.84081 30.6831 2.60675C46.8798 2.13866 69.6323 1.74852 96.7626 1.43639C151.022 0.812138 222.784 0.5 294.611 0.5C366.439 0.5 438.331 0.812137 492.851 1.43639C520.112 1.74852 543.027 2.13865 559.419 2.60674C567.616 2.8408 574.178 3.09425 578.835 3.36693C581.164 3.50331 583.011 3.64418 584.346 3.78917C585.014 3.86173 585.546 3.93459 585.944 4.0071C586.131 4.04126 586.276 4.07345 586.386 4.10189C589.304 113.662 590.584 144.177 590.227 174.673C589.948 198.511 588.669 222.336 586.39 283.893Z" stroke="white" stroke-opacity="0.2"/>
<path d="M451.075 152.845C474.769 152.845 493.977 133.673 493.977 110.024C493.977 86.3746 474.769 67.2031 451.075 67.2031C427.38 67.2031 408.172 86.3746 408.172 110.024C408.172 133.673 427.38 152.845 451.075 152.845Z" fill="white"/>
<path d="M521.173 162.376C520.414 154.428 517.435 147.129 512.885 141.11L451.095 165.097L389.288 141.11C384.738 147.129 381.758 154.428 381 162.376L419.551 177.334L393.315 187.517C396.836 194.473 401.079 201.015 405.954 207.089L451.095 189.571L496.237 207.089C501.112 201.015 505.337 194.473 508.876 187.517L482.64 177.334L521.191 162.376H521.173Z" fill="white"/>
<path d="M90.2329 123.723C102.147 123.723 111.806 114.393 111.806 102.885C111.806 91.3764 102.147 82.0469 90.2329 82.0469C78.3186 82.0469 68.6602 91.3764 68.6602 102.885C68.6602 114.393 78.3186 123.723 90.2329 123.723Z" fill="white"/>
<path d="M125.469 128.361C125.086 124.493 123.593 120.947 121.304 118.016L90.2352 129.686L59.1653 118.016C56.8757 120.947 55.3833 124.493 55 128.361L74.38 135.641L61.1875 140.598C62.9601 143.983 65.0905 147.165 67.5392 150.123L90.2352 141.598L112.931 150.123C115.38 147.166 117.51 143.983 119.283 140.598L106.089 135.642L125.469 128.361Z" fill="white"/>
<path d="M181.092 98.049C181.092 95.1055 183.529 92.75 186.578 92.75C189.625 92.75 192.063 95.1043 192.063 98.049C192.063 100.994 189.626 103.348 186.578 103.348C183.53 103.347 181.092 100.992 181.092 98.049ZM181.702 107.704C185.298 106.938 188.833 106.879 191.576 107.763C191.819 107.998 191.331 136.199 191.088 136.611C188.894 136.905 184.688 137.023 182.006 136.67C181.884 136.493 181.336 108.352 181.702 107.704Z" fill="white"/>
<path d="M196.086 107.901C199.56 107.136 203.034 107.077 205.655 107.96C205.716 109.078 205.655 111.375 205.594 111.669C207.91 107.842 212.176 106.724 216.443 107.665C216.382 110.726 215.772 114.494 215.041 117.497C214.004 117.203 212.42 116.907 210.957 116.907C207.849 116.907 206.508 118.85 206.142 121.44C205.96 122.735 206.447 136.394 206.265 136.571C203.827 136.924 199.072 137.042 196.025 136.63C195.842 136.396 195.842 109.078 196.086 107.901Z" fill="white"/>
<path d="M217.951 121.996C217.951 112.929 225.082 107.102 232.091 107.102C237.516 107.102 240.198 109.927 241.051 111.046C241.051 110.693 241.051 108.221 241.173 107.926C244.465 107.22 247.755 107.161 250.315 107.985C250.498 108.044 250.07 135.832 249.888 136.48C247.694 136.774 243.488 136.892 240.806 136.539C240.745 136.127 240.745 133.654 240.684 133.242C239.647 134.891 236.174 136.892 232.09 136.892C225.082 136.892 217.951 131.063 217.951 121.996ZM240.441 121.996C240.441 118.522 237.759 115.756 234.224 115.756C230.689 115.756 228.007 118.524 228.007 121.996C228.007 125.468 230.689 128.236 234.224 128.236C237.759 128.237 240.441 125.47 240.441 121.996Z" fill="white"/>
<path d="M257.784 127.472C257.845 124.705 258.21 114.579 258.21 114.52C258.21 114.461 254.31 114.52 254.006 114.226C253.761 112.46 253.64 109.104 253.944 106.985H258.516C258.577 106.691 258.577 100.98 258.82 100.274C260.953 99.6265 266.195 98.9783 268.145 99.2133C268.329 99.5663 267.962 107.103 268.023 107.162C269.364 107.103 274.911 107.162 275.459 107.397C275.703 109.163 275.824 112.519 275.52 114.638C275.093 115.05 268.328 114.756 267.779 114.815C267.779 115.109 267.595 121.644 267.595 125.059C267.595 126.943 268.571 128.12 270.522 128.179C272.411 128.238 274.057 127.119 274.544 127.002C275.459 128.651 276.738 131.889 277.226 134.009C277.226 134.009 274.667 136.952 268.205 136.893C261.196 136.892 257.784 133.183 257.784 127.472Z" fill="white"/>
<path d="M288.301 124.713C288.605 127.363 290.799 128.893 295.006 128.893C297.992 128.893 300.735 128.01 302.32 127.126C303.234 128.775 304.514 132.013 305.002 134.133C303.357 135.428 299.456 136.9 294.519 136.9C283.061 136.9 278.367 129.777 278.367 121.888C278.367 114.293 283.792 106.875 293.665 106.875C302.32 106.875 307.135 113.057 307.135 119.65C307.135 121.476 307.012 123.242 306.708 124.419C303.598 124.831 292.324 124.831 288.301 124.713ZM288.422 118.59L297.869 118.472C297.869 115.587 296.59 113.88 293.542 113.88C290.617 113.88 288.789 115.824 288.422 118.59Z" fill="white"/>
<path d="M191.521 148.133C191.705 149.605 191.46 164.803 191.217 166.276C192.559 164.508 194.998 162.742 199.266 162.742C207.56 162.742 211.646 167.807 211.646 175.406C211.646 179.354 211.159 191.017 210.793 192.136C208.537 192.43 204.146 192.548 201.341 192.195C201.218 191.547 201.402 178.529 201.402 176.409C201.402 173.935 199.998 171.048 196.828 171.048C193.474 171.048 191.705 173.581 191.705 175.879C191.705 177.822 191.644 191.96 191.399 192.195C189.143 192.489 184.752 192.607 181.947 192.254C181.763 191.901 181.581 151.256 181.886 148.075C185.423 147.307 188.838 147.248 191.521 148.133Z" fill="white"/>
<path d="M231.311 162.787C234.665 162.08 237.958 162.021 240.519 162.846L240.458 166.027C240.885 165.32 243.812 162.669 248.813 162.669C256.313 162.669 262.899 168.501 262.899 177.572C262.899 186.644 256.374 192.417 248.813 192.476C244.788 192.535 241.433 190.591 241.007 189.825C241.007 191.768 241.007 204.198 240.703 204.728C238.263 205.081 233.568 205.199 230.579 204.787C230.396 204.729 230.762 164.084 231.311 162.787ZM252.838 177.574C252.838 174.098 250.033 171.33 246.495 171.33C242.958 171.33 240.154 174.099 240.154 177.574C240.154 181.049 242.959 183.817 246.495 183.817C250.033 183.817 252.838 181.049 252.838 177.574Z" fill="white"/>
<path d="M215.797 153.643C215.797 150.699 218.234 148.344 221.283 148.344C224.33 148.344 226.769 150.698 226.769 153.643C226.769 156.586 224.331 158.942 221.283 158.942C218.235 158.941 215.797 156.586 215.797 153.643ZM216.407 163.297C220.003 162.532 223.538 162.473 226.281 163.356C226.524 163.591 226.036 191.792 225.793 192.204C223.599 192.498 219.393 192.617 216.711 192.263C216.589 192.086 216.041 163.946 216.407 163.297Z" fill="white"/>
<path d="M159.812 192.482C172.415 192.482 177.59 185.954 177.59 179.72C177.59 171.604 171.502 168.487 162.978 166.723C156.585 165.429 155.611 164.607 155.611 162.784C155.611 160.843 157.437 159.432 161.517 159.432C167.362 159.432 171.806 161.667 172.78 162.02C173.877 160.197 175.399 156.256 176.068 153.61C173.755 152.081 168.397 150.375 161.335 150.375C150.558 150.375 144.715 156.197 144.715 162.902C144.715 170.605 149.159 174.487 157.561 176.075C164.196 177.31 165.901 178.78 165.901 180.603C165.901 183.132 163.649 183.838 159.57 183.838C154.395 183.838 149.22 180.662 147.759 179.839C146.663 181.662 145.08 185.661 144.41 188.308C146.6 189.894 152.568 192.482 159.812 192.482Z" fill="white"/>
<path d="M161.383 95.2422C155.66 95.2422 148.78 95.5362 145.492 95.8301C144.944 99.9471 145.065 133.939 145.37 136.644C148.719 137.056 153.954 136.879 156.694 136.526C157.06 135.585 156.998 129.998 156.998 124.705C159.251 124.764 159.19 124.764 161.381 124.764C170.88 124.764 177.638 119.059 177.638 110.003C177.638 100.946 170.881 95.2422 161.383 95.2422ZM160.713 115.65C159.373 115.65 157.852 115.591 156.755 115.474V105.123C158.216 104.947 159.008 104.888 160.895 104.888C163.94 104.888 166.436 106.888 166.436 110.24C166.436 113.591 163.94 115.65 160.713 115.65Z" fill="white"/>
</svg>
