<svg width="597" height="597" viewBox="0 0 597 597" fill="none" xmlns="http://www.w3.org/2000/svg">
<path d="M297.562 328.199C343.378 328.199 380.519 291.048 380.519 245.219C380.519 199.39 343.378 162.238 297.562 162.238C251.746 162.238 214.604 199.39 214.604 245.219C214.604 291.048 251.746 328.199 297.562 328.199Z" fill="white"/>
<path d="M433.106 346.67C431.64 331.268 425.879 317.123 417.081 305.459L297.602 351.943L178.088 305.459C169.29 317.123 163.529 331.268 162.062 346.67L236.606 375.657L185.874 395.389C192.683 408.87 200.888 421.548 210.315 433.317L297.602 399.371L384.889 433.317C394.316 421.548 402.486 408.87 409.329 395.389L358.598 375.657L433.141 346.67H433.106Z" fill="white"/>
<circle cx="297.466" cy="298.002" r="136.005" stroke="#00A3DA" stroke-width="2"/>
<circle cx="242.56" cy="353.442" r="80.5635" stroke="#00A3DA" stroke-width="2"/>
<circle cx="352.376" cy="353.442" r="80.5635" stroke="#00A3DA" stroke-width="2"/>
<circle cx="297.466" cy="381.696" r="52.3095" stroke="#00A3DA" stroke-width="2"/>
<circle cx="298.53" cy="217.503" r="216.503" stroke="#00A3DA" stroke-width="2"/>
<circle cx="297.468" cy="378.499" r="216.503" stroke="#00A3DA" stroke-width="2"/>
<circle cx="217.503" cy="298.003" r="216.503" stroke="#00A3DA" stroke-width="2"/>
<circle cx="378.499" cy="298.003" r="216.503" stroke="#00A3DA" stroke-width="2"/>
</svg>
