<svg width="772" height="391" viewBox="0 0 772 391" fill="none" xmlns="http://www.w3.org/2000/svg">
<path d="M107.91 132.345C144.384 132.345 173.952 102.719 173.952 66.1727C173.952 29.6264 144.384 0 107.91 0C71.4368 0 41.8691 29.6264 41.8691 66.1727C41.8691 102.719 71.4368 132.345 107.91 132.345Z" fill="#141414"/>
<path d="M215.811 146.344C214.637 134.119 210.069 122.912 203.059 113.648L107.948 150.531L12.8373 113.648C5.82816 122.912 1.25933 134.123 0.0859375 146.344L59.4143 169.349L19.0239 185.011C24.4504 195.709 30.9723 205.766 38.4687 215.114L107.948 188.172L177.428 215.114C184.924 205.77 191.446 195.709 196.873 185.011L156.482 169.349L215.811 146.344Z" fill="#141414"/>
<path d="M386.088 50.5903C386.088 41.2878 393.55 33.8438 402.884 33.8438C412.217 33.8438 419.676 41.2841 419.676 50.5903C419.676 59.8964 412.217 67.3368 402.884 67.3368C393.55 67.3368 386.088 59.8964 386.088 50.5903ZM387.956 81.1015C398.966 78.6838 409.787 78.4972 418.185 81.2881C418.929 82.0307 417.435 171.155 416.691 172.457C409.972 173.386 397.098 173.759 388.888 172.644C388.515 172.084 386.838 83.1501 387.956 81.1055V81.1015Z" fill="#141414"/>
<path d="M431.954 81.7039C442.587 79.2859 453.22 79.0993 461.245 81.8905C461.433 85.424 461.245 92.6815 461.056 93.6106C468.148 81.5174 481.208 77.9836 494.271 80.9573C494.083 90.6329 492.221 102.54 489.98 112.029C486.806 111.099 481.955 110.167 477.476 110.167C467.96 110.167 463.857 116.305 462.736 124.491C462.18 128.585 463.668 171.749 463.113 172.309C455.65 173.425 441.093 173.798 431.766 172.496C431.204 171.749 431.204 85.42 431.954 81.6999V81.7039Z" fill="#141414"/>
<path d="M498.897 126.251C498.897 97.5976 520.725 79.1797 542.183 79.1797C558.79 79.1797 567 88.1086 569.612 91.6461C569.612 90.5304 569.612 82.7169 569.986 81.784C580.063 79.5528 590.134 79.3663 597.97 81.9706C598.532 82.1571 597.223 169.975 596.664 172.024C589.949 172.953 577.071 173.326 568.862 172.21C568.677 170.908 568.677 163.095 568.488 161.792C565.314 167.001 554.681 173.326 542.18 173.326C520.722 173.326 498.891 154.908 498.891 126.255L498.897 126.251ZM567.744 126.251C567.744 115.273 559.535 106.531 548.713 106.531C537.891 106.531 529.682 115.277 529.682 126.251C529.682 137.225 537.891 145.971 548.713 145.971C559.535 145.971 567.744 137.225 567.744 126.251Z" fill="#141414"/>
<path d="M620.848 143.556C621.037 134.81 622.154 102.809 622.154 102.623C622.154 102.436 610.215 102.623 609.283 101.694C608.536 96.1115 608.165 85.5071 609.094 78.8093H623.09C623.278 77.8801 623.278 59.8313 624.022 57.6001C630.552 55.5556 646.598 53.5067 652.569 54.2492C653.131 55.365 652.007 79.1824 652.195 79.369C656.302 79.1824 673.283 79.369 674.959 80.1116C675.706 85.6937 676.077 96.2981 675.145 102.996C673.839 104.298 653.128 103.369 651.448 103.556C651.448 104.485 650.886 125.138 650.886 135.929C650.886 141.885 653.872 145.605 659.843 145.791C665.629 145.978 670.665 142.44 672.159 142.071C674.959 147.28 678.874 157.515 680.369 164.213C680.369 164.213 672.533 173.516 652.754 173.329C631.296 173.329 620.845 161.609 620.845 143.56L620.848 143.556Z" fill="#141414"/>
<path d="M714.256 134.811C715.188 143.184 721.907 148.02 734.782 148.02C743.924 148.02 752.321 145.229 757.175 142.438C759.972 147.647 763.89 157.882 765.384 164.58C760.346 168.673 748.406 173.326 733.293 173.326C698.217 173.326 683.848 150.815 683.848 125.882C683.848 100.949 700.452 78.4375 730.678 78.4375C757.175 78.4375 771.914 97.9749 771.914 118.811C771.914 124.579 771.538 130.162 770.608 133.882C761.093 135.184 726.572 135.184 714.262 134.811H714.256ZM714.633 115.46L743.553 115.087C743.553 105.971 739.635 100.575 730.308 100.575C720.977 100.575 715.754 106.714 714.633 115.46Z" fill="#141414"/>
<path d="M420.241 208.865C420.803 213.518 420.055 261.549 419.308 266.202C423.418 260.616 430.883 255.034 443.949 255.034C469.341 255.034 481.851 271.042 481.851 295.058C481.851 307.532 480.357 344.391 479.239 347.929C472.329 348.859 458.89 349.231 450.3 348.117C449.927 346.066 450.489 304.927 450.489 298.226C450.489 290.408 446.197 281.285 436.484 281.285C426.218 281.285 420.803 289.289 420.803 296.55C420.803 302.692 420.614 347.372 419.867 348.117C412.96 349.043 399.518 349.419 390.928 348.301C390.369 347.187 389.811 218.734 390.743 208.682C401.571 206.26 412.022 206.077 420.241 208.868V208.865Z" fill="#141414"/>
<path d="M542.014 255.161C552.282 252.925 562.363 252.739 570.202 255.347L570.017 265.4C571.323 263.164 580.286 254.787 595.593 254.787C618.555 254.787 638.716 273.217 638.716 301.886C638.716 330.556 618.74 348.797 595.593 348.985C583.271 349.17 573.002 343.028 571.696 340.608C571.696 346.75 571.696 386.032 570.764 387.706C563.295 388.821 548.923 389.193 539.772 387.891C539.213 387.706 540.334 259.258 542.014 255.161ZM607.915 301.886C607.915 290.9 599.326 282.154 588.498 282.154C577.668 282.154 569.084 290.904 569.084 301.886C569.084 312.868 577.674 321.618 588.498 321.618C599.323 321.618 607.915 312.868 607.915 301.886Z" fill="#141414"/>
<path d="M494.523 226.246C494.523 216.944 501.983 209.5 511.316 209.5C520.65 209.5 528.109 216.94 528.109 226.246C528.109 235.553 520.65 242.993 511.316 242.993C501.983 242.993 494.523 235.553 494.523 226.246ZM496.388 256.758C507.398 254.34 518.22 254.153 526.618 256.944C527.362 257.687 525.867 346.812 525.123 348.114C518.408 349.041 505.53 349.417 497.321 348.299C496.947 347.739 495.271 258.806 496.388 256.762V256.758Z" fill="#141414"/>
<path d="M323.15 348.992C361.731 348.992 377.573 328.361 377.573 308.66C377.573 283.013 358.937 273.162 332.842 267.588C313.271 263.499 310.289 260.898 310.289 255.137C310.289 249.003 315.88 244.544 328.368 244.544C346.263 244.544 359.87 251.607 362.849 252.723C366.208 246.962 370.864 234.507 372.917 226.145C365.832 221.314 349.431 215.922 327.813 215.922C294.821 215.922 276.932 234.32 276.932 255.51C276.932 279.856 290.537 292.125 316.259 297.143C336.572 301.046 341.793 305.691 341.793 311.453C341.793 319.445 334.895 321.677 322.41 321.677C306.566 321.677 290.724 311.637 286.253 309.039C282.896 314.799 278.05 327.438 276 335.802C282.709 340.821 300.976 349.001 323.154 349.001" fill="#141414"/>
<path d="M325.719 41.6756C308.201 41.6756 287.139 42.6047 277.073 43.5339C275.397 56.5447 275.767 163.97 276.699 172.518C286.952 173.82 302.978 173.261 311.366 172.145C312.486 169.171 312.298 151.515 312.298 134.788C319.195 134.975 319.007 134.975 325.716 134.975C354.794 134.975 375.483 116.945 375.483 88.3231C375.483 59.701 354.794 41.6719 325.716 41.6719L325.719 41.6756ZM323.669 106.17C319.569 106.17 314.91 105.983 311.554 105.614V72.9023C316.025 72.3463 318.451 72.1597 324.228 72.1597C333.549 72.1597 341.187 78.4807 341.187 89.0734C341.187 99.6664 333.549 106.174 323.669 106.174V106.17Z" fill="#141414"/>
</svg>
