<?xml version="1.0" encoding="UTF-8"?>
<svg id="a" data-name="Pic 1" xmlns="http://www.w3.org/2000/svg" xmlns:xlink="http://www.w3.org/1999/xlink" viewBox="0 0 500 500">
  <defs>
    <style>
      .h, .i, .j {
        fill: none;
      }

      .k {
        fill: #1d1e1c;
      }

      .i {
        stroke: #00a9ff;
        stroke-width: 1.01px;
      }

      .j {
        stroke: #e6007e;
        stroke-miterlimit: 10;
      }

      .l {
        clip-path: url(#e);
      }

      .m {
        clip-path: url(#d);
      }

      .n {
        clip-path: url(#b);
      }

      .o {
        clip-path: url(#c);
      }

      .p, .q {
        isolation: isolate;
      }

      .q {
        opacity: .39;
      }
    </style>
    <clipPath id="b">
      <rect class="h" x="290" y="324" width="76" height="44"/>
    </clipPath>
    <clipPath id="c">
      <rect class="h" x="290.55" y="324.18" width="75.37" height="43.76"/>
    </clipPath>
    <clipPath id="d">
      <rect class="h" x="135" y="324" width="76" height="44"/>
    </clipPath>
    <clipPath id="e">
      <rect class="h" x="135.13" y="324.18" width="75.37" height="43.76"/>
    </clipPath>
  </defs>
  <g class="p">
    <circle class="j" cx="250.48" cy="188.08" r="160.54" transform="translate(-36.61 62.81) rotate(-13.33)"/>
    <circle class="j" cx="250.48" cy="310.96" r="160.54" transform="translate(-146.51 268.2) rotate(-45)"/>
    <circle class="j" cx="311.92" cy="249.54" r="160.54" transform="translate(-48.21 76.71) rotate(-13.02)"/>
    <circle class="j" cx="189.04" cy="249.54" r="160.54" transform="translate(-121.08 206.76) rotate(-45)"/>
  </g>
  <path class="k" d="m368.21,242.94l-28.35,11.77,9.6,33.88,23.18-9.66,6.31-2.48c0-12.13-4.65-23.99-10.73-33.51"/>
  <path class="k" d="m134.03,243.4l28.35,11.77-9.6,33.88-23.18-9.66-6.31-2.48c0-12.13,4.65-23.99,10.74-33.51"/>
  <path class="k" d="m339.86,254.71l-66.01,26.95-23.32,9.52-23.42-9.56-65.99-26.94c-6.09,9.53-9.64,20.84-9.64,32.99,0,.29.02.58.02.88l4.9,2,47.84,19.53-34.83,14.22c2.39,4.57,5,9,7.8,13.3,3.72,5.71,7.78,11.17,12.17,16.35l13.91-5.68,41.7-17.02,5.55-2.26,5.47,2.23,41.74,17.04,13.69,5.59c4.28-5.05,8.25-10.38,11.89-15.94,2.9-4.43,5.6-8.99,8.05-13.71l-34.56-14.11,47.46-19.38,5.17-2.11c0-.31.02-.61.02-.92,0-12.13-3.54-23.44-9.62-32.96"/>
  <path class="k" d="m201.34,248.99c1.77,2.36,3.7,4.59,5.78,6.67,1.39,1.39,2.84,2.71,4.36,3.96,1.51,1.25,3.09,2.43,4.72,3.53.82.55,1.65,1.08,2.49,1.6.85.51,1.71,1.01,2.58,1.48,2.62,1.42,5.35,2.66,8.18,3.69,6.56,2.4,13.65,3.71,21.05,3.71,5.29,0,10.43-.67,15.33-1.93,1.95-.5,3.85-1.1,5.72-1.78.01,0,.03,0,.04-.01.94-.35,1.87-.71,2.79-1.1,1.83-.77,3.62-1.64,5.36-2.58,9.56-5.19,17.58-12.85,23.22-22.13,1.54-2.53,2.9-5.18,4.06-7.93.84-1.99,1.57-4.04,2.2-6.12,1.7-5.62,2.62-11.58,2.62-17.75,0-8.47-1.72-16.54-4.82-23.87-1.16-2.75-2.52-5.4-4.06-7.93-5.63-9.27-13.66-16.93-23.22-22.13-1.74-.94-3.53-1.81-5.36-2.58-.92-.39-1.85-.75-2.79-1.1-1.88-.69-3.8-1.29-5.76-1.79-4.9-1.26-10.04-1.93-15.33-1.93-11.64,0-22.53,3.24-31.8,8.88-.84.51-1.67,1.04-2.49,1.6-1.63,1.1-3.21,2.28-4.72,3.53-1.51,1.25-2.97,2.57-4.36,3.96-2.08,2.08-4.01,4.31-5.78,6.67-7.65,10.23-12.19,22.94-12.19,36.7,0,6.17.92,12.13,2.62,17.75,2.09,6.91,5.35,13.3,9.57,18.95"/>
  <g class="q">
    <g class="n">
      <g class="o">
        <path class="k" d="m290.55,345.31l41.74,17.04,13.69,5.59c4.28-5.05,8.25-10.38,11.89-15.94,2.9-4.43,5.6-9,8.05-13.71l-34.56-14.11"/>
      </g>
    </g>
  </g>
  <g class="q">
    <g class="m">
      <g class="l">
        <path class="k" d="m210.5,345.31l-41.74,17.04-13.69,5.59c-4.28-5.05-8.25-10.38-11.89-15.94-2.9-4.43-5.6-9-8.05-13.71l34.56-14.11"/>
      </g>
    </g>
  </g>
  <path class="j" d="m349.59,249.54c0-66.9-40.93-124.24-99.1-148.36-58.18,24.12-99.1,81.46-99.1,148.36s40.93,124.24,99.1,148.36c58.18-24.12,99.1-81.46,99.1-148.36Z"/>
  <path class="i" d="m343.25,338.83c0,12.43-10.07,22.5-22.5,22.5s-22.5-10.07-22.5-22.5,10.07-22.5,22.5-22.5,22.5,10.07,22.5,22.5Z"/>
  <path class="i" d="m201.22,338.84c0,12.43-10.07,22.5-22.5,22.5s-22.5-10.07-22.5-22.5,10.07-22.5,22.5-22.5,22.5,10.07,22.5,22.5Z"/>
</svg>