<svg width="369" height="762" viewBox="0 0 369 762" fill="none" xmlns="http://www.w3.org/2000/svg">
<path d="M363.687 759.353C362.792 759.503 361.127 759.652 358.73 759.794C355.984 759.956 352.321 760.107 347.855 760.246C338.922 760.525 326.787 760.757 312.367 760.943C283.527 761.314 245.557 761.5 205.81 761.5C126.642 761.5 40.4433 760.763 5.30236 759.289C2.1019 722.451 0.499895 556.05 0.5 387.466C0.500105 218.669 2.10621 47.7622 5.31597 2.63051C5.61098 2.57613 6.06254 2.51707 6.68445 2.4573C7.58079 2.37116 8.7811 2.28741 10.2681 2.20628C13.2412 2.04407 17.343 1.89326 22.4154 1.75395C32.5592 1.47536 46.5715 1.24315 63.1713 1.05736C96.3702 0.685795 139.91 0.5 183.532 0.5C227.153 0.5 270.855 0.685795 304.377 1.05736C321.138 1.24315 335.352 1.47536 345.738 1.75395C350.931 1.89326 355.165 2.04409 358.279 2.20634C359.837 2.28748 361.112 2.3713 362.085 2.45763C362.788 2.52001 363.318 2.58242 363.679 2.64265C370.105 119.822 370.107 674.357 363.687 759.353Z" stroke="white" stroke-opacity="0.2"/>
</svg>
