<svg width="199" height="121" viewBox="0 0 199 121" fill="none" xmlns="http://www.w3.org/2000/svg">
<path d="M28.4732 33.6805C37.7588 33.6805 45.2863 26.1408 45.2863 16.8403C45.2863 7.53963 37.7588 0 28.4732 0C19.1876 0 11.6602 7.53963 11.6602 16.8403C11.6602 26.1408 19.1876 33.6805 28.4732 33.6805Z" fill="#141414"/>
<path d="M55.9416 37.2427C55.6429 34.1314 54.4797 31.2793 52.6953 28.9219L28.4815 38.3081L4.26778 28.9219C2.48336 31.2793 1.32021 34.1324 1.02148 37.2427L16.1255 43.0972L5.8428 47.083C7.22428 49.8055 8.88466 52.3648 10.7931 54.744L28.4815 47.8873L46.1699 54.744C48.0784 52.3658 49.7388 49.8055 51.1203 47.083L40.8375 43.0972L55.9416 37.2427Z" fill="#141414"/>
<line x1="1.5" y1="37.125" x2="1.5" y2="115.096" stroke="#00A9FF" stroke-opacity="0.3" stroke-dasharray="1 1"/>
<path d="M0.434315 114.161C0.121895 114.473 0.121895 114.98 0.434315 115.292L5.52548 120.383C5.8379 120.696 6.34443 120.696 6.65685 120.383C6.96927 120.071 6.96927 119.564 6.65685 119.252L2.13137 114.727L6.65685 110.201C6.96927 109.889 6.96927 109.382 6.65685 109.07C6.34444 108.757 5.8379 108.757 5.52548 109.07L0.434315 114.161ZM198.105 115.292C198.417 114.98 198.417 114.473 198.105 114.161L193.013 109.07C192.701 108.757 192.195 108.757 191.882 109.07C191.57 109.382 191.57 109.889 191.882 110.201L196.408 114.727L191.882 119.252C191.57 119.564 191.57 120.071 191.882 120.383C192.195 120.696 192.701 120.696 193.013 120.383L198.105 115.292ZM1 115.527L197.539 115.527L197.539 113.927L1 113.927L1 115.527Z" fill="#00A9FF"/>
<line x1="198.039" y1="37.125" x2="198.039" y2="115.096" stroke="#00A9FF" stroke-opacity="0.3" stroke-dasharray="1 1"/>
<path d="M99.293 12.8712C99.293 10.5038 101.193 8.60938 103.569 8.60938C105.945 8.60938 107.844 10.5029 107.844 12.8712C107.844 15.2395 105.945 17.133 103.569 17.133C101.193 17.133 99.293 15.2395 99.293 12.8712ZM99.7685 20.636C102.571 20.0207 105.326 19.9732 107.464 20.6835C107.654 20.8725 107.273 43.5536 107.084 43.885C105.374 44.1215 102.096 44.2165 100.006 43.9325C99.9108 43.7901 99.484 21.1573 99.7685 20.637V20.636Z" fill="#141414"/>
<path d="M110.968 20.7937C113.675 20.1783 116.382 20.1309 118.425 20.8412C118.473 21.7404 118.425 23.5874 118.377 23.8238C120.183 20.7462 123.508 19.8469 126.833 20.6037C126.785 23.066 126.311 26.0962 125.741 28.511C124.933 28.2746 123.698 28.0372 122.557 28.0372C120.135 28.0372 119.09 29.5992 118.805 31.6827C118.663 32.7243 119.042 43.7093 118.901 43.8518C117.001 44.1357 113.295 44.2306 110.92 43.8993C110.777 43.7093 110.777 21.7394 110.968 20.7927V20.7937Z" fill="#141414"/>
<path d="M128.011 32.1276C128.011 24.8356 133.568 20.1484 139.031 20.1484C143.259 20.1484 145.349 22.4208 146.014 23.321C146.014 23.0371 146.014 21.0486 146.109 20.8112C148.675 20.2434 151.239 20.1959 153.234 20.8587C153.377 20.9062 153.044 43.255 152.901 43.7763C151.192 44.0128 147.913 44.1077 145.823 43.8238C145.776 43.4924 145.776 41.504 145.728 41.1726C144.92 42.4982 142.213 44.1077 139.031 44.1077C133.568 44.1077 128.01 39.4205 128.01 32.1286L128.011 32.1276ZM145.539 32.1276C145.539 29.3338 143.449 27.109 140.694 27.109C137.939 27.109 135.849 29.3348 135.849 32.1276C135.849 34.9203 137.939 37.1462 140.694 37.1462C143.449 37.1462 145.539 34.9203 145.539 32.1276Z" fill="#141414"/>
<path d="M159.059 36.5329C159.106 34.307 159.391 26.1632 159.391 26.1158C159.391 26.0683 156.351 26.1158 156.114 25.8794C155.924 24.4587 155.83 21.76 156.066 20.0555H159.629C159.677 19.819 159.677 15.2258 159.867 14.658C161.529 14.1376 165.614 13.6162 167.134 13.8052C167.277 14.0891 166.991 20.1504 167.039 20.1979C168.084 20.1504 172.408 20.1979 172.834 20.3869C173.025 21.8075 173.119 24.5062 172.881 26.2107C172.549 26.5421 167.276 26.3058 166.849 26.3532C166.849 26.5896 166.706 31.8457 166.706 34.5919C166.706 36.1075 167.466 37.0542 168.986 37.1017C170.459 37.1492 171.741 36.249 172.121 36.155C172.834 37.4806 173.831 40.0854 174.211 41.7899C174.211 41.7899 172.217 44.1573 167.181 44.1097C161.718 44.1097 159.058 41.1271 159.058 36.5338L159.059 36.5329Z" fill="#141414"/>
<path d="M182.947 34.3074C183.184 36.4384 184.894 37.669 188.172 37.669C190.499 37.669 192.637 36.9587 193.873 36.2484C194.585 37.574 195.583 40.1788 195.963 41.8833C194.68 42.925 191.641 44.1092 187.793 44.1092C178.863 44.1092 175.205 38.3803 175.205 32.035C175.205 25.6898 179.432 19.9609 187.127 19.9609C193.873 19.9609 197.625 24.933 197.625 30.2355C197.625 31.7036 197.53 33.1243 197.293 34.071C194.87 34.4024 186.082 34.4024 182.948 34.3074H182.947ZM183.042 29.3828L190.405 29.2878C190.405 26.9679 189.408 25.5948 187.033 25.5948C184.658 25.5948 183.328 27.1569 183.042 29.3828Z" fill="#141414"/>
<path d="M107.986 53.1531C108.129 54.3372 107.939 66.5607 107.749 67.7449C108.795 66.3233 110.696 64.9027 114.022 64.9027C120.486 64.9027 123.671 68.9766 123.671 75.0883C123.671 78.2629 123.291 87.6433 123.006 88.5435C121.247 88.7801 117.826 88.8749 115.639 88.5913C115.544 88.0695 115.687 77.6001 115.687 75.8946C115.687 73.9051 114.594 71.5833 112.121 71.5833C109.508 71.5833 108.129 73.6202 108.129 75.4682C108.129 77.0313 108.081 88.4017 107.891 88.5913C106.133 88.8271 102.71 88.9227 100.524 88.6383C100.382 88.3547 100.239 55.6648 100.477 53.1065C103.233 52.4902 105.894 52.4438 107.986 53.154V53.1531Z" fill="#141414"/>
<path d="M138.988 64.9385C141.603 64.3697 144.169 64.3222 146.165 64.986L146.118 67.5442C146.45 66.9754 148.732 64.8435 152.629 64.8435C158.475 64.8435 163.607 69.5337 163.607 76.8296C163.607 84.1258 158.522 88.7681 152.629 88.8159C149.492 88.8629 146.878 87.2998 146.545 86.684C146.545 88.2471 146.545 98.2439 146.308 98.6701C144.406 98.9537 140.748 99.0485 138.418 98.7171C138.276 98.6701 138.561 65.9812 138.988 64.9385ZM155.766 76.8296C155.766 74.0339 153.579 71.808 150.823 71.808C148.065 71.808 145.88 74.0349 145.88 76.8296C145.88 79.6246 148.067 81.8513 150.823 81.8513C153.579 81.8513 155.766 79.6246 155.766 76.8296Z" fill="#141414"/>
<path d="M126.898 57.5743C126.898 55.2069 128.797 53.3125 131.174 53.3125C133.55 53.3125 135.449 55.2059 135.449 57.5743C135.449 59.9426 133.55 61.8361 131.174 61.8361C128.797 61.8361 126.898 59.9426 126.898 57.5743ZM127.373 65.3391C130.176 64.7238 132.931 64.6763 135.069 65.3866C135.259 65.5756 134.878 88.257 134.689 88.5885C132.979 88.8243 129.701 88.9199 127.611 88.6355C127.515 88.4929 127.089 65.8605 127.373 65.3401V65.3391Z" fill="#141414"/>
<path d="M83.2694 88.8181C93.0915 88.8181 97.1246 83.5678 97.1246 78.5541C97.1246 72.0271 92.3801 69.5203 85.7367 68.1016C80.7541 67.0609 79.9952 66.3991 79.9952 64.933C79.9952 63.3719 81.4183 62.2372 84.5978 62.2372C89.1535 62.2372 92.6175 64.0347 93.376 64.3186C94.2312 62.8525 95.4165 59.6829 95.9392 57.5549C94.1353 56.3253 89.96 54.9531 84.4563 54.9531C76.0571 54.9531 71.5028 59.6354 71.5028 65.0279C71.5028 71.2238 74.9664 74.346 81.515 75.6231C86.6862 76.6163 88.0154 77.7985 88.0154 79.2648C88.0154 81.2988 86.2594 81.8668 83.0807 81.8668C79.0474 81.8668 75.0141 79.3118 73.8758 78.6505C73.0213 80.1164 71.7876 83.3327 71.2656 85.4615C72.9736 86.7387 77.6242 88.8204 83.2702 88.8204" fill="#141414"/>
<path d="M83.9233 10.6103C79.4635 10.6103 74.1013 10.8468 71.5388 11.0832C71.112 14.3943 71.2063 41.733 71.4436 43.9085C74.0537 44.2398 78.1336 44.0974 80.2691 43.8134C80.5544 43.0566 80.5064 38.5634 80.5064 34.3065C82.2624 34.354 82.2145 34.354 83.9225 34.354C91.3252 34.354 96.5923 29.7657 96.5923 22.4816C96.5923 15.1976 91.3252 10.6094 83.9225 10.6094L83.9233 10.6103ZM83.4014 27.0234C82.3575 27.0234 81.1714 26.9759 80.317 26.882V18.5572C81.4552 18.4157 82.073 18.3682 83.5436 18.3682C85.9166 18.3682 87.8612 19.9768 87.8612 22.6726C87.8612 25.3684 85.9166 27.0244 83.4014 27.0244V27.0234Z" fill="#141414"/>
</svg>
