<svg width="290" height="290" viewBox="0 0 290 290" fill="none" xmlns="http://www.w3.org/2000/svg">
<g clip-path="url(#clip0_851_42566)">
<path d="M1.87009 288.204C28.8007 290.599 283.143 290.599 288.13 288.204C290.623 220.673 290.623 95.6689 288.13 1.79604C283.642 -0.598676 5.36134 -0.598689 1.87031 1.79605C-0.623347 73.6375 -0.623453 230.252 1.87009 288.204Z" fill="url(#paint0_linear_851_42566)"/>
<path d="M287.644 287.819C287.637 287.82 287.631 287.821 287.625 287.823C287.443 287.856 287.199 287.89 286.891 287.924C286.275 287.993 285.427 288.06 284.359 288.126C282.223 288.256 279.228 288.378 275.487 288.49C268.007 288.714 257.561 288.901 245.079 289.051C220.115 289.35 187.015 289.5 153.229 289.5C86.3388 289.5 16.8091 288.913 2.35084 287.743C-0.119124 229.554 -0.117035 73.9814 2.35765 2.17083C2.52303 2.14 2.74995 2.10798 3.04132 2.07548C3.65736 2.00677 4.52782 1.93955 5.64043 1.87424C7.86379 1.74373 11.0283 1.62229 15.0029 1.51008C22.9507 1.28569 34.1215 1.09864 47.4456 0.948981C74.0929 0.649668 109.343 0.5 144.626 0.5C179.909 0.5 215.222 0.649667 241.994 0.948979C255.38 1.09864 266.629 1.28569 274.67 1.51008C278.692 1.62229 281.907 1.74374 284.185 1.87427C285.325 1.93959 286.224 2.00686 286.871 2.07574C287.194 2.11024 287.448 2.14442 287.632 2.17766C287.635 2.1781 287.637 2.17853 287.64 2.17897C290.119 95.8336 290.12 220.306 287.644 287.819Z" stroke="white" stroke-opacity="0.2"/>
</g>
<rect x="0.5" y="0.5" width="289" height="289" stroke="white" stroke-opacity="0.2"/>
<defs>
<linearGradient id="paint0_linear_851_42566" x1="-46.6893" y1="15.4535" x2="200.883" y2="72.2654" gradientUnits="userSpaceOnUse">
<stop stop-color="#3CFEAA"/>
<stop offset="0.810863" stop-color="#04CACA"/>
</linearGradient>
<clipPath id="clip0_851_42566">
<rect width="290" height="290" fill="white"/>
</clipPath>
</defs>
</svg>
