<svg width="369" height="369" viewBox="0 0 369 369" fill="none" xmlns="http://www.w3.org/2000/svg">
<path d="M363.679 366.352C362.783 366.503 361.116 366.652 358.719 366.794C355.973 366.956 352.311 367.107 347.845 367.246C338.915 367.525 326.783 367.757 312.369 367.943C283.54 368.314 245.584 368.5 205.849 368.5C126.704 368.5 40.5137 367.763 5.31072 366.289C-1.10778 294.097 -1.10399 91.8008 5.32461 2.63069C5.62002 2.57624 6.07211 2.51715 6.69463 2.45735C7.59135 2.3712 8.79199 2.28745 10.2792 2.20632C13.2528 2.04412 17.3549 1.8933 22.4273 1.75399C32.5712 1.4754 46.5829 1.24319 63.1814 1.05739C96.3777 0.685816 139.913 0.500011 183.53 0.5C227.147 0.499989 270.844 0.685773 304.364 1.05733C321.124 1.24312 335.338 1.47532 345.724 1.75391C350.918 1.89322 355.152 2.04405 358.267 2.20629C359.826 2.28743 361.101 2.37126 362.074 2.45758C362.778 2.52 363.308 2.58245 363.67 2.64272C370.108 118.961 370.11 282.527 363.679 366.352Z" stroke="white" stroke-opacity="0.2"/>
</svg>
