<svg width="171" height="172" viewBox="0 0 171 172" fill="none" xmlns="http://www.w3.org/2000/svg">
<path d="M85.4185 94.8628C98.9067 94.8628 109.841 83.7006 109.841 69.9315C109.841 56.1622 98.9067 45 85.4185 45C71.9304 45 60.9961 56.1622 60.9961 69.9315C60.9961 83.7006 71.9304 94.8628 85.4185 94.8628Z" fill="#141414"/>
<path d="M125.308 100.369C124.874 95.7443 123.184 91.5045 120.592 88L85.4194 101.953L50.2468 88C47.6548 91.5045 45.9652 95.7457 45.5312 100.369L67.4712 109.073L52.5346 114.998C54.5414 119.045 56.9532 122.849 59.7254 126.386L85.4194 116.193L111.113 126.386C113.886 122.851 116.297 119.045 118.304 114.998L103.368 109.073L125.308 100.369Z" fill="#141414"/>
<rect x="43.5" y="44" width="84" height="84" stroke="#00A9FF"/>
<rect x="0.5" y="1" width="170" height="170" stroke="#00A9FF"/>
</svg>
