<svg width="762" height="369" viewBox="0 0 762 369" fill="none" xmlns="http://www.w3.org/2000/svg">
<path d="M756.688 366.342C756.187 366.406 755.306 366.474 754.034 366.541C752.392 366.628 750.146 366.712 747.331 366.793C741.704 366.956 733.817 367.107 723.976 367.246C704.295 367.525 676.807 367.757 643.964 367.943C578.279 368.314 491.183 368.5 402.31 368.5C225.287 368.5 41.2414 367.763 5.30193 366.289C-1.10445 294.101 -1.10106 91.8263 5.31459 2.64753C5.44577 2.6299 5.61806 2.61045 5.83684 2.5903C6.31599 2.54618 6.96809 2.50231 7.79036 2.4589C9.43396 2.37214 11.7406 2.28808 14.6683 2.20683C20.5229 2.04436 28.8487 1.89344 39.295 1.7541C60.187 1.47542 89.5525 1.24318 124.575 1.05739C194.619 0.685797 287.285 0.5 380.032 0.5C472.779 0.5 565.606 0.685797 635.973 1.05739C671.157 1.24318 700.724 1.47542 721.858 1.75409C732.425 1.89343 740.882 2.04435 746.878 2.20683C749.877 2.28808 752.257 2.37214 753.977 2.45895C754.837 2.50236 755.528 2.54629 756.048 2.59059C756.309 2.61287 756.518 2.63463 756.68 2.6551C763.105 118.967 763.106 282.516 756.688 366.342Z" stroke="white" stroke-opacity="0.2"/>
</svg>
