<svg width="553" height="121" viewBox="0 0 553 121" fill="none" xmlns="http://www.w3.org/2000/svg">
<path d="M20.5095 61.363C19.9671 60.1765 17.4585 51.3625 16.3398 46.4809H16.1364C14.8482 51.9049 12.5091 60.4138 11.9667 61.1935C10.4412 61.3969 7.5258 61.4986 5.6613 61.2952C5.3901 61.1596 0.8475 39.0229 0.8475 37.7686C2.8815 37.0906 4.9833 36.8194 6.6444 37.1584C6.8139 38.0059 9.0513 48.7522 9.492 52.7863H9.6276C10.509 48.8539 12.9498 39.7687 13.7973 37.4296C15.6279 37.0567 17.5263 37.0228 18.9501 37.4974C19.3569 38.4127 22.0689 49.3624 22.7808 52.8541H22.9164C23.3571 49.3963 25.4928 39.2263 26.0013 37.2601C28.137 37.0567 30.2388 37.2601 31.7982 38.0059C31.6287 39.7348 27.12 59.7697 26.6454 61.1935C25.1538 61.3969 22.3062 61.5325 20.5095 61.363Z" fill="#141414"/>
<path d="M73.3394 47.7013C71.7122 47.7013 70.3562 46.3453 70.3562 44.7181C70.3562 43.0909 71.7122 41.7688 73.3394 41.7688C74.9666 41.7688 76.2887 43.0909 76.2887 44.7181C76.2887 46.3453 74.9666 47.7013 73.3394 47.7013ZM79.9499 52.549L66.4916 52.7185C66.3221 52.5829 66.0848 49.7692 66.1526 49.7692L80.0855 49.6336C80.0855 49.6336 80.1194 52.4134 79.9499 52.549ZM73.3055 60.7528C71.6783 60.7528 70.3562 59.3968 70.3562 57.7696C70.3562 56.1424 71.6783 54.7864 73.3055 54.7864C74.9666 54.7864 76.2887 56.1424 76.2887 57.7696C76.2887 59.3968 74.9666 60.7528 73.3055 60.7528Z" fill="#141414"/>
<path d="M128.374 60.685C128.136 60.7867 122.814 61.0579 122.611 60.7189C122.475 59.6002 122.746 49.1929 122.814 43.8706C122.339 44.2435 117.593 46.8199 117.051 46.9894C116.373 46.0063 115.492 44.0062 115.22 42.6841C115.865 41.8705 124.407 37.4296 125.221 37.1584C125.831 37.1923 128.17 37.633 128.543 38.0398C128.543 40.345 128.543 59.4307 128.374 60.685ZM138.411 61.6003C136.377 61.6003 134.749 59.9731 134.749 57.9391C134.749 55.9051 136.377 54.2779 138.411 54.2779C140.445 54.2779 142.072 55.9051 142.072 57.9391C142.072 59.9731 140.445 61.6003 138.411 61.6003ZM153.2 61.5325C149.065 61.5325 144.488 58.5832 144.488 51.4642C144.488 42.6502 151.166 37.6669 155.472 36.8872C156.624 37.6669 158.116 39.8365 158.421 41.023C155.845 41.5993 151.98 43.9045 151.302 46.6504L151.404 46.786C152.251 46.2097 153.472 45.8029 155.234 45.8029C158.319 45.8029 162.082 48.4132 162.082 53.3626C162.082 58.651 157.98 61.5325 153.2 61.5325ZM153.438 56.5492C155.167 56.5492 156.556 55.1593 156.556 53.3965C156.556 51.6337 155.167 50.2438 153.438 50.2438C151.709 50.2438 150.319 51.6337 150.319 53.3965C150.319 55.1593 151.709 56.5492 153.438 56.5492ZM177.204 60.685C176.967 60.7867 171.645 61.0579 171.441 60.7189C171.306 59.6002 171.577 49.1929 171.645 43.8706C171.17 44.2435 166.424 46.8199 165.882 46.9894C165.204 46.0063 164.322 44.0062 164.051 42.6841C164.695 41.8705 173.238 37.4296 174.051 37.1584C174.662 37.1923 177.001 37.633 177.374 38.0398C177.374 40.345 177.374 59.4307 177.204 60.685ZM192.53 61.6342C187.207 61.6342 183.444 59.4985 183.444 54.4813C183.444 51.5659 185.546 49.5658 187.411 48.7522C185.817 47.9725 184.156 46.1419 184.156 43.7011C184.156 39.1585 187.75 37.0567 192.191 37.0567C196.869 37.0567 200.394 39.2263 200.394 43.7689C200.394 46.108 199.005 47.8708 197.411 48.6505C199.208 49.498 201.208 51.5659 201.208 54.583C201.208 59.1934 197.31 61.6342 192.53 61.6342ZM192.258 46.7521C193.818 46.7521 195.072 45.6673 195.072 44.1418C195.072 42.6163 193.818 41.5315 192.258 41.5315C190.699 41.5315 189.445 42.6163 189.445 44.1418C189.445 45.6673 190.699 46.7521 192.258 46.7521ZM192.326 57.1594C194.123 57.1594 195.581 55.8373 195.581 54.0745C195.581 52.3117 194.123 50.9896 192.326 50.9896C190.53 50.9896 189.072 52.3117 189.072 54.0745C189.072 55.8373 190.53 57.1594 192.326 57.1594ZM203.685 49.9969C203.563 49.9358 203.197 47.9222 203.279 47.3933C206.187 44.4034 209.198 42.166 209.198 40.3557C209.198 39.5624 208.75 38.8302 207.509 38.8302C206.147 38.8302 205.272 39.7252 205.028 40.0099C204.499 39.5421 203.462 38.3014 203.157 37.7318C203.258 37.4267 204.804 35.5148 208.099 35.5148C210.906 35.5148 212.859 37.0199 212.859 39.7252C212.859 42.1049 210.804 44.1389 207.997 46.8035L208.038 46.8645L212.859 46.7628C212.94 47.5357 212.92 49.0409 212.777 49.9765C212.269 50.0375 203.807 50.0782 203.685 49.9969ZM225.925 52.6207C225.864 52.6207 219.742 51.6647 219.742 43.7321C219.742 35.8606 226.088 35.1487 226.108 35.1893C226.291 35.4741 226.413 37.1013 226.413 37.2437C226.413 37.4471 222.243 37.4878 222.243 43.7932C222.243 49.9969 226.657 50.4647 226.657 50.5257C226.576 51.2173 226.006 52.6207 225.925 52.6207ZM233.124 50.1189C230.277 50.1596 228.263 47.9629 228.263 45.1356C228.263 42.5117 230.155 40.193 233.104 40.193C235.972 40.193 237.986 42.349 237.986 45.1559C237.986 47.8205 236.094 50.0782 233.124 50.1189ZM233.124 48.4103C234.853 48.4103 236.155 47.0272 236.155 45.1559C236.155 43.2847 234.853 41.9015 233.124 41.9015C231.395 41.9015 230.094 43.2847 230.094 45.1559C230.094 47.0272 231.395 48.4103 233.124 48.4103ZM240.906 50.0172C240.866 49.9358 240.866 40.8032 240.906 40.3964C241.415 40.193 242.249 40.2133 242.615 40.376C242.676 40.8235 242.615 41.7388 242.615 41.8202C243.449 40.4574 244.934 40.0303 246.337 40.3557C246.439 40.8032 246.357 41.7592 246.113 42.2066C245.829 42.1253 245.401 42.0439 244.954 42.0439C243.876 42.0439 242.94 42.9185 242.696 43.9762C242.635 44.2406 242.778 49.9562 242.737 50.0172C242.452 50.0986 241.252 50.1392 240.906 50.0172ZM257.83 50.2409C255.308 50.2409 253.6 49.1833 253.01 48.5324C253.233 47.9832 254.169 46.7425 254.657 46.234C255.125 46.6408 256.101 47.1696 257.424 47.1696C258.807 47.1696 259.498 46.4374 259.498 45.6238C259.498 44.7085 258.685 44.1186 257.261 44.1186H255.369C255.227 43.305 255.247 42.0032 255.369 41.332C255.837 41.332 256.895 41.3727 257.485 41.3727C258.176 41.3727 259.254 41.0879 259.254 40.0099C259.254 39.0336 258.379 38.5454 257.362 38.5454C256.366 38.5454 255.573 39.0336 255.145 39.4404C254.617 39.0133 253.539 37.8946 253.233 37.3657C253.986 36.5114 255.41 35.5148 257.871 35.5148C260.597 35.5148 262.631 37.0199 262.631 39.4607C262.631 41.3117 261.39 42.3694 260.78 42.6948V42.8168C261.43 42.9389 263.037 43.8542 263.037 45.9492C263.037 48.7968 260.597 50.2409 257.83 50.2409ZM265.724 35.1487C265.785 35.1487 271.887 36.1046 271.887 44.0372C271.887 51.9088 265.541 52.6207 265.52 52.58C265.358 52.2953 265.053 50.6681 265.053 50.5054C265.053 50.3223 269.405 50.2816 269.405 43.9762C269.405 37.7725 265.175 37.3047 265.175 37.2437C265.256 36.5521 265.642 35.1487 265.724 35.1487Z" fill="#141414"/>
<path d="M306.865 49.7014C306.593 48.3115 306.729 46.6843 306.797 46.5826C309.204 46.5148 319.848 46.5487 320.323 46.6843C320.526 47.464 320.425 49.1251 320.323 49.7353C320.255 49.7692 307.068 49.7014 306.865 49.7014ZM307.17 56.5153C307.034 55.6339 307 54.2779 307.17 53.3626C307.339 53.3287 319.882 53.227 320.221 53.3626C320.323 53.8711 320.391 55.4983 320.221 56.5153C320.187 56.5153 307.407 56.617 307.17 56.5153Z" fill="#141414"/>
<path d="M382.473 33.6805C391.759 33.6805 399.286 26.1408 399.286 16.8403C399.286 7.53963 391.759 0 382.473 0C373.188 0 365.66 7.53963 365.66 16.8403C365.66 26.1408 373.188 33.6805 382.473 33.6805Z" fill="#141414"/>
<path d="M409.942 37.2427C409.643 34.1314 408.48 31.2793 406.695 28.9219L382.482 38.3081L358.268 28.9219C356.483 31.2793 355.32 34.1324 355.021 37.2427L370.126 43.0972L359.843 47.083C361.224 49.8055 362.885 52.3648 364.793 54.744L382.482 47.8873L400.17 54.744C402.078 52.3658 403.739 49.8055 405.12 47.083L394.838 43.0972L409.942 37.2427Z" fill="#141414"/>
<line x1="355.5" y1="37.125" x2="355.5" y2="115.096" stroke="#00A9FF" stroke-opacity="0.3" stroke-dasharray="1 1"/>
<path d="M354.434 114.161C354.122 114.473 354.122 114.98 354.434 115.292L359.525 120.383C359.838 120.696 360.344 120.696 360.657 120.383C360.969 120.071 360.969 119.564 360.657 119.252L356.131 114.727L360.657 110.201C360.969 109.889 360.969 109.382 360.657 109.07C360.344 108.757 359.838 108.757 359.525 109.07L354.434 114.161ZM552.105 115.292C552.417 114.98 552.417 114.473 552.105 114.161L547.013 109.07C546.701 108.757 546.195 108.757 545.882 109.07C545.57 109.382 545.57 109.889 545.882 110.201L550.408 114.727L545.882 119.252C545.57 119.564 545.57 120.071 545.882 120.383C546.195 120.696 546.701 120.696 547.013 120.383L552.105 115.292ZM355 115.527L551.539 115.527L551.539 113.927L355 113.927L355 115.527Z" fill="#00A9FF"/>
<line x1="552.039" y1="37.125" x2="552.039" y2="115.096" stroke="#00A9FF" stroke-opacity="0.3" stroke-dasharray="1 1"/>
<path d="M453.293 12.8712C453.293 10.5038 455.193 8.60938 457.569 8.60938C459.945 8.60938 461.844 10.5029 461.844 12.8712C461.844 15.2395 459.945 17.133 457.569 17.133C455.193 17.133 453.293 15.2395 453.293 12.8712ZM453.769 20.636C456.571 20.0207 459.326 19.9732 461.464 20.6835C461.654 20.8725 461.273 43.5536 461.084 43.885C459.374 44.1215 456.096 44.2165 454.006 43.9325C453.911 43.7901 453.484 21.1573 453.769 20.637V20.636Z" fill="#141414"/>
<path d="M464.968 20.7937C467.675 20.1783 470.382 20.1309 472.425 20.8412C472.473 21.7404 472.425 23.5874 472.377 23.8238C474.183 20.7462 477.508 19.8469 480.833 20.6037C480.785 23.066 480.311 26.0962 479.741 28.511C478.933 28.2746 477.698 28.0372 476.557 28.0372C474.135 28.0372 473.09 29.5992 472.805 31.6827C472.663 32.7243 473.042 43.7093 472.901 43.8518C471.001 44.1357 467.295 44.2306 464.92 43.8993C464.777 43.7093 464.777 21.7394 464.968 20.7927V20.7937Z" fill="#141414"/>
<path d="M482.011 32.1276C482.011 24.8356 487.568 20.1484 493.031 20.1484C497.259 20.1484 499.349 22.4208 500.014 23.321C500.014 23.0371 500.014 21.0486 500.109 20.8112C502.675 20.2434 505.239 20.1959 507.234 20.8587C507.377 20.9062 507.044 43.255 506.901 43.7763C505.192 44.0128 501.913 44.1077 499.823 43.8238C499.776 43.4924 499.776 41.504 499.728 41.1726C498.92 42.4982 496.213 44.1077 493.031 44.1077C487.568 44.1077 482.01 39.4205 482.01 32.1286L482.011 32.1276ZM499.539 32.1276C499.539 29.3338 497.449 27.109 494.694 27.109C491.939 27.109 489.849 29.3348 489.849 32.1276C489.849 34.9203 491.939 37.1462 494.694 37.1462C497.449 37.1462 499.539 34.9203 499.539 32.1276Z" fill="#141414"/>
<path d="M513.059 36.5329C513.106 34.307 513.391 26.1632 513.391 26.1158C513.391 26.0683 510.351 26.1158 510.114 25.8794C509.924 24.4587 509.83 21.76 510.066 20.0555H513.629C513.677 19.819 513.677 15.2258 513.867 14.658C515.529 14.1376 519.614 13.6162 521.134 13.8052C521.277 14.0891 520.991 20.1504 521.039 20.1979C522.084 20.1504 526.408 20.1979 526.834 20.3869C527.025 21.8075 527.119 24.5062 526.881 26.2107C526.549 26.5421 521.276 26.3058 520.849 26.3532C520.849 26.5896 520.706 31.8457 520.706 34.5919C520.706 36.1075 521.466 37.0542 522.986 37.1017C524.459 37.1492 525.741 36.249 526.121 36.155C526.834 37.4806 527.831 40.0854 528.211 41.7899C528.211 41.7899 526.217 44.1573 521.181 44.1097C515.718 44.1097 513.058 41.1271 513.058 36.5338L513.059 36.5329Z" fill="#141414"/>
<path d="M536.947 34.3074C537.184 36.4384 538.894 37.669 542.172 37.669C544.499 37.669 546.637 36.9587 547.873 36.2483C548.585 37.574 549.583 40.1788 549.963 41.8833C548.68 42.925 545.641 44.1092 541.793 44.1092C532.863 44.1092 529.205 38.3803 529.205 32.035C529.205 25.6898 533.432 19.9609 541.127 19.9609C547.873 19.9609 551.625 24.933 551.625 30.2355C551.625 31.7036 551.53 33.1243 551.293 34.071C548.87 34.4024 540.082 34.4024 536.948 34.3074H536.947ZM537.042 29.3828L544.405 29.2878C544.405 26.9679 543.408 25.5948 541.033 25.5948C538.658 25.5948 537.328 27.1569 537.042 29.3828Z" fill="#141414"/>
<path d="M461.986 53.1531C462.129 54.3372 461.939 66.5607 461.749 67.7449C462.795 66.3233 464.696 64.9027 468.022 64.9027C474.486 64.9027 477.671 68.9766 477.671 75.0883C477.671 78.2629 477.291 87.6433 477.006 88.5435C475.247 88.7801 471.826 88.8749 469.639 88.5913C469.544 88.0695 469.687 77.6001 469.687 75.8946C469.687 73.9051 468.594 71.5833 466.121 71.5833C463.508 71.5833 462.129 73.6202 462.129 75.4682C462.129 77.0313 462.081 88.4017 461.891 88.5913C460.133 88.8271 456.71 88.9227 454.524 88.6383C454.382 88.3547 454.239 55.6648 454.477 53.1065C457.233 52.4902 459.894 52.4438 461.986 53.154V53.1531Z" fill="#141414"/>
<path d="M492.988 64.9385C495.603 64.3697 498.169 64.3222 500.165 64.986L500.118 67.5442C500.45 66.9754 502.732 64.8435 506.629 64.8435C512.475 64.8435 517.607 69.5337 517.607 76.8296C517.607 84.1258 512.522 88.7681 506.629 88.8159C503.492 88.8629 500.878 87.2998 500.545 86.684C500.545 88.2471 500.545 98.2439 500.308 98.6701C498.406 98.9537 494.748 99.0485 492.418 98.7171C492.276 98.6701 492.561 65.9812 492.988 64.9385ZM509.766 76.8296C509.766 74.0339 507.579 71.808 504.823 71.808C502.065 71.808 499.88 74.0349 499.88 76.8296C499.88 79.6246 502.067 81.8513 504.823 81.8513C507.579 81.8513 509.766 79.6246 509.766 76.8296Z" fill="#141414"/>
<path d="M480.898 57.5743C480.898 55.2069 482.797 53.3125 485.174 53.3125C487.55 53.3125 489.449 55.2059 489.449 57.5743C489.449 59.9426 487.55 61.8361 485.174 61.8361C482.797 61.8361 480.898 59.9426 480.898 57.5743ZM481.373 65.3391C484.176 64.7238 486.931 64.6763 489.069 65.3866C489.259 65.5756 488.878 88.257 488.689 88.5885C486.979 88.8243 483.701 88.9199 481.611 88.6355C481.515 88.4929 481.089 65.8605 481.373 65.3401V65.3391Z" fill="#141414"/>
<path d="M437.269 88.8181C447.091 88.8181 451.125 83.5678 451.125 78.5541C451.125 72.0271 446.38 69.5203 439.737 68.1016C434.754 67.0609 433.995 66.3991 433.995 64.933C433.995 63.3719 435.418 62.2372 438.598 62.2372C443.154 62.2372 446.618 64.0347 447.376 64.3186C448.231 62.8525 449.417 59.6829 449.939 57.5549C448.135 56.3253 443.96 54.9531 438.456 54.9531C430.057 54.9531 425.503 59.6354 425.503 65.0279C425.503 71.2238 428.966 74.346 435.515 75.6231C440.686 76.6163 442.015 77.7985 442.015 79.2648C442.015 81.2988 440.259 81.8668 437.081 81.8668C433.047 81.8668 429.014 79.3118 427.876 78.6505C427.021 80.1164 425.788 83.3327 425.266 85.4615C426.974 86.7387 431.624 88.8204 437.27 88.8204" fill="#141414"/>
<path d="M437.923 10.6103C433.463 10.6103 428.101 10.8468 425.539 11.0832C425.112 14.3943 425.206 41.733 425.444 43.9085C428.054 44.2398 432.134 44.0974 434.269 43.8134C434.554 43.0566 434.506 38.5634 434.506 34.3065C436.262 34.354 436.214 34.354 437.922 34.354C445.325 34.354 450.592 29.7657 450.592 22.4816C450.592 15.1976 445.325 10.6094 437.922 10.6094L437.923 10.6103ZM437.401 27.0234C436.358 27.0234 435.171 26.9759 434.317 26.882V18.5572C435.455 18.4157 436.073 18.3682 437.544 18.3682C439.917 18.3682 441.861 19.9768 441.861 22.6726C441.861 25.3684 439.917 27.0244 437.401 27.0244V27.0234Z" fill="#141414"/>
</svg>
