<svg width="146" height="72" viewBox="0 0 146 72" fill="none"
  xmlns="http://www.w3.org/2000/svg">
  <path d="M20.4024 24.3408C27.3014 24.3408 32.8942 18.8919 32.8942 12.1704C32.8942 5.44887 27.3014 0 20.4024 0C13.5034 0 7.91064 5.44887 7.91064 12.1704C7.91064 18.8919 13.5034 24.3408 20.4024 24.3408Z" fill="black"/>
  <path d="M40.8052 27.0478C40.5833 24.7885 39.7191 22.7173 38.3933 21.0054L20.403 27.8215L2.41193 21.0054C1.08614 22.7173 0.221948 24.7885 0 27.0478L11.222 31.2993L3.58287 34.1944C4.60929 36.1715 5.84291 38.03 7.26087 39.7577L20.403 34.7785L33.5451 39.7577C34.9631 38.0307 36.1967 36.1715 37.2231 34.1944L29.5832 31.3L40.8052 27.0478Z" fill="black"/>
  <path d="M73.0142 9.34779C73.0142 7.62866 74.4255 6.25293 76.1908 6.25293C77.9553 6.25293 79.3673 7.62794 79.3673 9.34779C79.3673 11.0676 77.956 12.4426 76.1908 12.4426C74.4262 12.4419 73.0142 11.0669 73.0142 9.34779ZM73.3674 14.9865C75.4497 14.5397 77.4966 14.5052 79.0849 15.021C79.2258 15.1582 78.9433 31.6289 78.8025 31.8696C77.532 32.0413 75.0965 32.1102 73.5436 31.9041C73.4728 31.8006 73.1557 15.3651 73.3674 14.9865Z" fill="black"/>
  <path d="M81.6938 15.0996C83.7054 14.6528 85.7169 14.6183 87.2344 15.1341C87.2698 15.7871 87.2344 17.1284 87.199 17.3001C88.5403 15.0651 91.0105 14.4121 93.4814 14.9617C93.446 16.7498 93.0928 18.9502 92.6696 20.7038C92.0694 20.5321 91.1521 20.3597 90.3048 20.3597C88.5049 20.3597 87.7285 21.4941 87.5168 23.007C87.4114 23.7635 87.6931 31.7406 87.5876 31.844C86.1763 32.0502 83.423 32.1192 81.6584 31.8785C81.5523 31.742 81.5523 15.7871 81.6938 15.0996Z" fill="black"/>
  <path d="M94.3586 23.3304C94.3586 18.0351 98.4879 14.6313 102.546 14.6313C105.688 14.6313 107.24 16.2815 107.734 16.9353C107.734 16.7291 107.734 15.2851 107.805 15.1127C109.711 14.7003 111.617 14.6658 113.099 15.1472C113.205 15.1816 112.957 31.411 112.852 31.7896C111.581 31.9613 109.146 32.0302 107.593 31.8241C107.558 31.5834 107.558 30.1394 107.522 29.8987C106.922 30.8614 104.91 32.0302 102.546 32.0302C98.4879 32.0302 94.3586 28.6257 94.3586 23.3304ZM107.381 23.3304C107.381 21.3017 105.828 19.686 103.781 19.686C101.735 19.686 100.182 21.3024 100.182 23.3304C100.182 25.3585 101.735 26.9749 103.781 26.9749C105.828 26.9756 107.381 25.3592 107.381 23.3304Z" fill="black"/>
  <path d="M117.422 26.5308C117.457 24.9144 117.669 19.0005 117.669 18.966C117.669 18.9316 115.41 18.966 115.234 18.7943C115.092 17.7627 115.022 15.8029 115.199 14.5651H117.846C117.881 14.3934 117.881 11.0579 118.022 10.6455C119.257 10.2677 122.292 9.88908 123.422 10.0263C123.528 10.2325 123.316 14.6341 123.351 14.6686C124.127 14.6341 127.339 14.6686 127.656 14.8058C127.798 15.8374 127.868 17.7972 127.692 19.035C127.445 19.2757 123.527 19.104 123.209 19.1385C123.209 19.3102 123.103 23.127 123.103 25.1213C123.103 26.2219 123.668 26.9094 124.798 26.9439C125.892 26.9783 126.845 26.3246 127.127 26.2563C127.656 27.219 128.398 29.1105 128.68 30.3483C128.68 30.3483 127.198 32.0675 123.456 32.033C119.398 32.0323 117.422 29.8663 117.422 26.5308Z" fill="black"/>
  <path d="M135.094 24.9158C135.27 26.4632 136.54 27.3569 138.976 27.3569C140.705 27.3569 142.293 26.8411 143.211 26.3253C143.741 27.2879 144.482 29.1795 144.764 30.4173C143.811 31.1737 141.553 32.0337 138.694 32.0337C132.059 32.0337 129.341 27.8734 129.341 23.2656C129.341 18.8302 132.482 14.4976 138.199 14.4976C143.211 14.4976 145.999 18.1082 145.999 21.9588C145.999 23.0249 145.928 24.0566 145.752 24.7441C143.952 24.9847 137.423 24.9847 135.094 24.9158ZM135.164 21.3396L140.634 21.2706C140.634 19.586 139.893 18.5888 138.129 18.5888C136.435 18.5888 135.376 19.7239 135.164 21.3396Z" fill="black"/>
  <path d="M79.0541 38.5994C79.1603 39.4593 79.0187 48.3358 78.8779 49.1958C79.6551 48.1634 81.0671 47.1318 83.5388 47.1318C88.3413 47.1318 90.7075 50.0902 90.7075 54.5284C90.7075 56.8338 90.4251 63.6456 90.2134 64.2994C88.9068 64.4711 86.3644 64.54 84.74 64.3339C84.6692 63.9553 84.7754 56.3524 84.7754 55.1139C84.7754 53.6692 83.9628 51.9831 82.1267 51.9831C80.1845 51.9831 79.1603 53.4623 79.1603 54.8043C79.1603 55.9394 79.1249 64.1966 78.9833 64.3339C77.6767 64.5056 75.1343 64.5745 73.5099 64.3683C73.4037 64.1622 73.2982 40.4234 73.4745 38.5656C75.5229 38.1173 77.5005 38.0829 79.0541 38.5994Z" fill="black"/>
  <path d="M102.094 47.1563C104.036 46.7432 105.943 46.7088 107.426 47.1908L107.39 49.0486C107.637 48.6355 109.333 47.0874 112.228 47.0874C116.571 47.0874 120.385 50.4933 120.385 55.7915C120.385 61.0897 116.607 64.4611 112.228 64.4956C109.898 64.5301 107.955 63.395 107.708 62.9474C107.708 64.0825 107.708 71.3419 107.532 71.6515C106.119 71.8577 103.401 71.9267 101.67 71.686C101.564 71.6523 101.776 47.9135 102.094 47.1563ZM114.559 55.7922C114.559 53.762 112.935 52.1456 110.886 52.1456C108.838 52.1456 107.214 53.7627 107.214 55.7922C107.214 57.8217 108.839 59.4388 110.886 59.4388C112.935 59.4388 114.559 57.8217 114.559 55.7922Z" fill="black"/>
  <path d="M93.1089 41.8156C93.1089 40.0964 94.5202 38.7207 96.2855 38.7207C98.05 38.7207 99.4621 40.0957 99.4621 41.8156C99.4621 43.5347 98.0507 44.9104 96.2855 44.9104C94.521 44.9097 93.1089 43.5347 93.1089 41.8156ZM93.4621 47.4543C95.5444 47.0074 97.5914 46.9729 99.1796 47.4888C99.3205 47.626 99.0381 64.0967 98.8972 64.3373C97.6267 64.509 95.1912 64.578 93.6383 64.3718C93.5675 64.2684 93.2505 47.8329 93.4621 47.4543Z" fill="black"/>
  <path d="M60.6902 64.497C67.9879 64.497 70.9846 60.6845 70.9846 57.0436C70.9846 52.3036 67.4592 50.4832 62.5233 49.453C58.8217 48.6973 58.2576 48.2167 58.2576 47.152C58.2576 46.0184 59.315 45.1944 61.6775 45.1944C65.062 45.1944 67.6355 46.4997 68.1996 46.7059C68.8344 45.6412 69.7156 43.3394 70.1034 41.7942C68.7636 40.9012 65.6615 39.9048 61.5721 39.9048C55.3317 39.9048 51.948 43.305 51.948 47.221C51.948 51.7203 54.5214 53.9875 59.3865 54.915C63.229 55.6363 64.2163 56.4948 64.2163 57.5594C64.2163 59.0364 62.9119 59.4488 60.5501 59.4488C57.5534 59.4488 54.5568 57.5939 53.711 57.1133C53.0761 58.178 52.1596 60.5135 51.7717 62.0595C53.04 62.9855 56.4953 64.497 60.6902 64.497Z" fill="black"/>
  <path d="M61.6019 7.70508C58.2882 7.70508 54.3042 7.87678 52.4003 8.04847C52.0832 10.453 52.1533 30.3059 52.3295 31.8856C54.2688 32.1263 57.3001 32.0229 58.8869 31.8167C59.0986 31.2671 59.0632 28.0041 59.0632 24.9129C60.3676 24.9474 60.3322 24.9474 61.6012 24.9474C67.1012 24.9474 71.0144 21.6154 71.0144 16.3259C71.0144 11.0363 67.102 7.70508 61.6019 7.70508ZM61.2141 19.624C60.4384 19.624 59.5572 19.5895 58.9223 19.5213V13.476C59.7681 13.3732 60.2267 13.3388 61.3195 13.3388C63.0826 13.3388 64.5278 14.5069 64.5278 16.4645C64.5278 18.4214 63.0826 19.624 61.2141 19.624Z" fill="black"/>
</svg>
